%TF.GenerationSoftware,KiCad,Pcbnew,9.0.4*%
%TF.CreationDate,2026-01-21T00:58:39+05:30*%
%TF.ProjectId,Jayant co2 Hackpad,4a617961-6e74-4206-936f-32204861636b,rev?*%
%TF.SameCoordinates,Original*%
%TF.FileFunction,Legend,Top*%
%TF.FilePolarity,Positive*%
%FSLAX46Y46*%
G04 Gerber Fmt 4.6, Leading zero omitted, Abs format (unit mm)*
G04 Created by KiCad (PCBNEW 9.0.4) date 2026-01-21 00:58:39*
%MOMM*%
%LPD*%
G01*
G04 APERTURE LIST*
%ADD10C,0.300000*%
%ADD11C,0.100000*%
%ADD12C,0.150000*%
%ADD13C,0.106680*%
%ADD14C,0.120000*%
%ADD15C,0.127000*%
%ADD16C,0.504000*%
G04 APERTURE END LIST*
D10*
X84311653Y-130457971D02*
X84240225Y-130529400D01*
X84240225Y-130529400D02*
X84025939Y-130600828D01*
X84025939Y-130600828D02*
X83883082Y-130600828D01*
X83883082Y-130600828D02*
X83668796Y-130529400D01*
X83668796Y-130529400D02*
X83525939Y-130386542D01*
X83525939Y-130386542D02*
X83454510Y-130243685D01*
X83454510Y-130243685D02*
X83383082Y-129957971D01*
X83383082Y-129957971D02*
X83383082Y-129743685D01*
X83383082Y-129743685D02*
X83454510Y-129457971D01*
X83454510Y-129457971D02*
X83525939Y-129315114D01*
X83525939Y-129315114D02*
X83668796Y-129172257D01*
X83668796Y-129172257D02*
X83883082Y-129100828D01*
X83883082Y-129100828D02*
X84025939Y-129100828D01*
X84025939Y-129100828D02*
X84240225Y-129172257D01*
X84240225Y-129172257D02*
X84311653Y-129243685D01*
X85240225Y-129100828D02*
X85525939Y-129100828D01*
X85525939Y-129100828D02*
X85668796Y-129172257D01*
X85668796Y-129172257D02*
X85811653Y-129315114D01*
X85811653Y-129315114D02*
X85883082Y-129600828D01*
X85883082Y-129600828D02*
X85883082Y-130100828D01*
X85883082Y-130100828D02*
X85811653Y-130386542D01*
X85811653Y-130386542D02*
X85668796Y-130529400D01*
X85668796Y-130529400D02*
X85525939Y-130600828D01*
X85525939Y-130600828D02*
X85240225Y-130600828D01*
X85240225Y-130600828D02*
X85097368Y-130529400D01*
X85097368Y-130529400D02*
X84954510Y-130386542D01*
X84954510Y-130386542D02*
X84883082Y-130100828D01*
X84883082Y-130100828D02*
X84883082Y-129600828D01*
X84883082Y-129600828D02*
X84954510Y-129315114D01*
X84954510Y-129315114D02*
X85097368Y-129172257D01*
X85097368Y-129172257D02*
X85240225Y-129100828D01*
X86454511Y-129243685D02*
X86525939Y-129172257D01*
X86525939Y-129172257D02*
X86668797Y-129100828D01*
X86668797Y-129100828D02*
X87025939Y-129100828D01*
X87025939Y-129100828D02*
X87168797Y-129172257D01*
X87168797Y-129172257D02*
X87240225Y-129243685D01*
X87240225Y-129243685D02*
X87311654Y-129386542D01*
X87311654Y-129386542D02*
X87311654Y-129529400D01*
X87311654Y-129529400D02*
X87240225Y-129743685D01*
X87240225Y-129743685D02*
X86383082Y-130600828D01*
X86383082Y-130600828D02*
X87311654Y-130600828D01*
D11*
X125303646Y-123967419D02*
X125970312Y-124967419D01*
X125970312Y-123967419D02*
X125303646Y-124967419D01*
X126351265Y-124967419D02*
X126351265Y-123967419D01*
X126779836Y-124681704D02*
X127256026Y-124681704D01*
X126684598Y-124967419D02*
X127017931Y-123967419D01*
X127017931Y-123967419D02*
X127351264Y-124967419D01*
X127875074Y-123967419D02*
X128065550Y-123967419D01*
X128065550Y-123967419D02*
X128160788Y-124015038D01*
X128160788Y-124015038D02*
X128256026Y-124110276D01*
X128256026Y-124110276D02*
X128303645Y-124300752D01*
X128303645Y-124300752D02*
X128303645Y-124634085D01*
X128303645Y-124634085D02*
X128256026Y-124824561D01*
X128256026Y-124824561D02*
X128160788Y-124919800D01*
X128160788Y-124919800D02*
X128065550Y-124967419D01*
X128065550Y-124967419D02*
X127875074Y-124967419D01*
X127875074Y-124967419D02*
X127779836Y-124919800D01*
X127779836Y-124919800D02*
X127684598Y-124824561D01*
X127684598Y-124824561D02*
X127636979Y-124634085D01*
X127636979Y-124634085D02*
X127636979Y-124300752D01*
X127636979Y-124300752D02*
X127684598Y-124110276D01*
X127684598Y-124110276D02*
X127779836Y-124015038D01*
X127779836Y-124015038D02*
X127875074Y-123967419D01*
X129494122Y-124967419D02*
X129494122Y-123967419D01*
X129494122Y-124443609D02*
X130065550Y-124443609D01*
X130065550Y-124967419D02*
X130065550Y-123967419D01*
X130541741Y-124443609D02*
X130875074Y-124443609D01*
X131017931Y-124967419D02*
X130541741Y-124967419D01*
X130541741Y-124967419D02*
X130541741Y-123967419D01*
X130541741Y-123967419D02*
X131017931Y-123967419D01*
X132017931Y-124967419D02*
X131684598Y-124491228D01*
X131446503Y-124967419D02*
X131446503Y-123967419D01*
X131446503Y-123967419D02*
X131827455Y-123967419D01*
X131827455Y-123967419D02*
X131922693Y-124015038D01*
X131922693Y-124015038D02*
X131970312Y-124062657D01*
X131970312Y-124062657D02*
X132017931Y-124157895D01*
X132017931Y-124157895D02*
X132017931Y-124300752D01*
X132017931Y-124300752D02*
X131970312Y-124395990D01*
X131970312Y-124395990D02*
X131922693Y-124443609D01*
X131922693Y-124443609D02*
X131827455Y-124491228D01*
X131827455Y-124491228D02*
X131446503Y-124491228D01*
X132446503Y-124443609D02*
X132779836Y-124443609D01*
X132922693Y-124967419D02*
X132446503Y-124967419D01*
X132446503Y-124967419D02*
X132446503Y-123967419D01*
X132446503Y-123967419D02*
X132922693Y-123967419D01*
D10*
X103685463Y-78406304D02*
X103483082Y-80025352D01*
X103483082Y-80025352D02*
X103364034Y-80215828D01*
X103364034Y-80215828D02*
X103256891Y-80311066D01*
X103256891Y-80311066D02*
X103054510Y-80406304D01*
X103054510Y-80406304D02*
X102768796Y-80406304D01*
X102768796Y-80406304D02*
X102590225Y-80311066D01*
X103530701Y-79644400D02*
X103328320Y-79739638D01*
X103328320Y-79739638D02*
X102947368Y-79739638D01*
X102947368Y-79739638D02*
X102768796Y-79644400D01*
X102768796Y-79644400D02*
X102685463Y-79549161D01*
X102685463Y-79549161D02*
X102614034Y-79358685D01*
X102614034Y-79358685D02*
X102685463Y-78787257D01*
X102685463Y-78787257D02*
X102804510Y-78596780D01*
X102804510Y-78596780D02*
X102911653Y-78501542D01*
X102911653Y-78501542D02*
X103114034Y-78406304D01*
X103114034Y-78406304D02*
X103494987Y-78406304D01*
X103494987Y-78406304D02*
X103673558Y-78501542D01*
X104471177Y-79739638D02*
X104637844Y-78406304D01*
X104721177Y-77739638D02*
X104614034Y-77834876D01*
X104614034Y-77834876D02*
X104697368Y-77930114D01*
X104697368Y-77930114D02*
X104804511Y-77834876D01*
X104804511Y-77834876D02*
X104721177Y-77739638D01*
X104721177Y-77739638D02*
X104697368Y-77930114D01*
X105304511Y-78406304D02*
X106066415Y-78406304D01*
X105673558Y-77739638D02*
X105459273Y-79453923D01*
X105459273Y-79453923D02*
X105530701Y-79644400D01*
X105530701Y-79644400D02*
X105709273Y-79739638D01*
X105709273Y-79739638D02*
X105899749Y-79739638D01*
X106566415Y-79739638D02*
X106816415Y-77739638D01*
X107423558Y-79739638D02*
X107554510Y-78692019D01*
X107554510Y-78692019D02*
X107483082Y-78501542D01*
X107483082Y-78501542D02*
X107304510Y-78406304D01*
X107304510Y-78406304D02*
X107018796Y-78406304D01*
X107018796Y-78406304D02*
X106816415Y-78501542D01*
X106816415Y-78501542D02*
X106709272Y-78596780D01*
X109399749Y-78406304D02*
X109233082Y-79739638D01*
X108542606Y-78406304D02*
X108411654Y-79453923D01*
X108411654Y-79453923D02*
X108483082Y-79644400D01*
X108483082Y-79644400D02*
X108661654Y-79739638D01*
X108661654Y-79739638D02*
X108947368Y-79739638D01*
X108947368Y-79739638D02*
X109149749Y-79644400D01*
X109149749Y-79644400D02*
X109256892Y-79549161D01*
X110185463Y-79739638D02*
X110435463Y-77739638D01*
X110340225Y-78501542D02*
X110542606Y-78406304D01*
X110542606Y-78406304D02*
X110923558Y-78406304D01*
X110923558Y-78406304D02*
X111102130Y-78501542D01*
X111102130Y-78501542D02*
X111185463Y-78596780D01*
X111185463Y-78596780D02*
X111256892Y-78787257D01*
X111256892Y-78787257D02*
X111185463Y-79358685D01*
X111185463Y-79358685D02*
X111066416Y-79549161D01*
X111066416Y-79549161D02*
X110959273Y-79644400D01*
X110959273Y-79644400D02*
X110756892Y-79739638D01*
X110756892Y-79739638D02*
X110375939Y-79739638D01*
X110375939Y-79739638D02*
X110197368Y-79644400D01*
X112018797Y-79549161D02*
X112102130Y-79644400D01*
X112102130Y-79644400D02*
X111994987Y-79739638D01*
X111994987Y-79739638D02*
X111911654Y-79644400D01*
X111911654Y-79644400D02*
X112018797Y-79549161D01*
X112018797Y-79549161D02*
X111994987Y-79739638D01*
X113816416Y-79644400D02*
X113614035Y-79739638D01*
X113614035Y-79739638D02*
X113233083Y-79739638D01*
X113233083Y-79739638D02*
X113054511Y-79644400D01*
X113054511Y-79644400D02*
X112971178Y-79549161D01*
X112971178Y-79549161D02*
X112899749Y-79358685D01*
X112899749Y-79358685D02*
X112971178Y-78787257D01*
X112971178Y-78787257D02*
X113090225Y-78596780D01*
X113090225Y-78596780D02*
X113197368Y-78501542D01*
X113197368Y-78501542D02*
X113399749Y-78406304D01*
X113399749Y-78406304D02*
X113780702Y-78406304D01*
X113780702Y-78406304D02*
X113959273Y-78501542D01*
X114947369Y-79739638D02*
X114768797Y-79644400D01*
X114768797Y-79644400D02*
X114685464Y-79549161D01*
X114685464Y-79549161D02*
X114614035Y-79358685D01*
X114614035Y-79358685D02*
X114685464Y-78787257D01*
X114685464Y-78787257D02*
X114804511Y-78596780D01*
X114804511Y-78596780D02*
X114911654Y-78501542D01*
X114911654Y-78501542D02*
X115114035Y-78406304D01*
X115114035Y-78406304D02*
X115399749Y-78406304D01*
X115399749Y-78406304D02*
X115578321Y-78501542D01*
X115578321Y-78501542D02*
X115661654Y-78596780D01*
X115661654Y-78596780D02*
X115733083Y-78787257D01*
X115733083Y-78787257D02*
X115661654Y-79358685D01*
X115661654Y-79358685D02*
X115542607Y-79549161D01*
X115542607Y-79549161D02*
X115435464Y-79644400D01*
X115435464Y-79644400D02*
X115233083Y-79739638D01*
X115233083Y-79739638D02*
X114947369Y-79739638D01*
X116471178Y-79739638D02*
X116637845Y-78406304D01*
X116614035Y-78596780D02*
X116721178Y-78501542D01*
X116721178Y-78501542D02*
X116923559Y-78406304D01*
X116923559Y-78406304D02*
X117209273Y-78406304D01*
X117209273Y-78406304D02*
X117387845Y-78501542D01*
X117387845Y-78501542D02*
X117459273Y-78692019D01*
X117459273Y-78692019D02*
X117328321Y-79739638D01*
X117459273Y-78692019D02*
X117578321Y-78501542D01*
X117578321Y-78501542D02*
X117780702Y-78406304D01*
X117780702Y-78406304D02*
X118066416Y-78406304D01*
X118066416Y-78406304D02*
X118244988Y-78501542D01*
X118244988Y-78501542D02*
X118316416Y-78692019D01*
X118316416Y-78692019D02*
X118185464Y-79739638D01*
X120828321Y-77644400D02*
X118792607Y-80215828D01*
X122054512Y-77739638D02*
X121875940Y-79168209D01*
X121875940Y-79168209D02*
X121744988Y-79453923D01*
X121744988Y-79453923D02*
X121530702Y-79644400D01*
X121530702Y-79644400D02*
X121233083Y-79739638D01*
X121233083Y-79739638D02*
X121042607Y-79739638D01*
X123614036Y-79739638D02*
X123744988Y-78692019D01*
X123744988Y-78692019D02*
X123673560Y-78501542D01*
X123673560Y-78501542D02*
X123494988Y-78406304D01*
X123494988Y-78406304D02*
X123114036Y-78406304D01*
X123114036Y-78406304D02*
X122911655Y-78501542D01*
X123625941Y-79644400D02*
X123423560Y-79739638D01*
X123423560Y-79739638D02*
X122947369Y-79739638D01*
X122947369Y-79739638D02*
X122768798Y-79644400D01*
X122768798Y-79644400D02*
X122697369Y-79453923D01*
X122697369Y-79453923D02*
X122721179Y-79263447D01*
X122721179Y-79263447D02*
X122840227Y-79072971D01*
X122840227Y-79072971D02*
X123042608Y-78977733D01*
X123042608Y-78977733D02*
X123518798Y-78977733D01*
X123518798Y-78977733D02*
X123721179Y-78882495D01*
X124542608Y-78406304D02*
X124852132Y-79739638D01*
X125494989Y-78406304D02*
X124852132Y-79739638D01*
X124852132Y-79739638D02*
X124602132Y-80215828D01*
X124602132Y-80215828D02*
X124494989Y-80311066D01*
X124494989Y-80311066D02*
X124292608Y-80406304D01*
X126947370Y-79739638D02*
X127078322Y-78692019D01*
X127078322Y-78692019D02*
X127006894Y-78501542D01*
X127006894Y-78501542D02*
X126828322Y-78406304D01*
X126828322Y-78406304D02*
X126447370Y-78406304D01*
X126447370Y-78406304D02*
X126244989Y-78501542D01*
X126959275Y-79644400D02*
X126756894Y-79739638D01*
X126756894Y-79739638D02*
X126280703Y-79739638D01*
X126280703Y-79739638D02*
X126102132Y-79644400D01*
X126102132Y-79644400D02*
X126030703Y-79453923D01*
X126030703Y-79453923D02*
X126054513Y-79263447D01*
X126054513Y-79263447D02*
X126173561Y-79072971D01*
X126173561Y-79072971D02*
X126375942Y-78977733D01*
X126375942Y-78977733D02*
X126852132Y-78977733D01*
X126852132Y-78977733D02*
X127054513Y-78882495D01*
X128066418Y-78406304D02*
X127899751Y-79739638D01*
X128042608Y-78596780D02*
X128149751Y-78501542D01*
X128149751Y-78501542D02*
X128352132Y-78406304D01*
X128352132Y-78406304D02*
X128637846Y-78406304D01*
X128637846Y-78406304D02*
X128816418Y-78501542D01*
X128816418Y-78501542D02*
X128887846Y-78692019D01*
X128887846Y-78692019D02*
X128756894Y-79739638D01*
X129590228Y-78406304D02*
X130352132Y-78406304D01*
X129959275Y-77739638D02*
X129744990Y-79453923D01*
X129744990Y-79453923D02*
X129816418Y-79644400D01*
X129816418Y-79644400D02*
X129994990Y-79739638D01*
X129994990Y-79739638D02*
X130185466Y-79739638D01*
X130983085Y-77930114D02*
X131090227Y-77834876D01*
X131090227Y-77834876D02*
X131292608Y-77739638D01*
X131292608Y-77739638D02*
X131768799Y-77739638D01*
X131768799Y-77739638D02*
X131947370Y-77834876D01*
X131947370Y-77834876D02*
X132030704Y-77930114D01*
X132030704Y-77930114D02*
X132102132Y-78120590D01*
X132102132Y-78120590D02*
X132078323Y-78311066D01*
X132078323Y-78311066D02*
X131947370Y-78596780D01*
X131947370Y-78596780D02*
X130661656Y-79739638D01*
X130661656Y-79739638D02*
X131899751Y-79739638D01*
X133387847Y-77739638D02*
X133578323Y-77739638D01*
X133578323Y-77739638D02*
X133756894Y-77834876D01*
X133756894Y-77834876D02*
X133840228Y-77930114D01*
X133840228Y-77930114D02*
X133911656Y-78120590D01*
X133911656Y-78120590D02*
X133959275Y-78501542D01*
X133959275Y-78501542D02*
X133899751Y-78977733D01*
X133899751Y-78977733D02*
X133756894Y-79358685D01*
X133756894Y-79358685D02*
X133637847Y-79549161D01*
X133637847Y-79549161D02*
X133530704Y-79644400D01*
X133530704Y-79644400D02*
X133328323Y-79739638D01*
X133328323Y-79739638D02*
X133137847Y-79739638D01*
X133137847Y-79739638D02*
X132959275Y-79644400D01*
X132959275Y-79644400D02*
X132875942Y-79549161D01*
X132875942Y-79549161D02*
X132804513Y-79358685D01*
X132804513Y-79358685D02*
X132756894Y-78977733D01*
X132756894Y-78977733D02*
X132816418Y-78501542D01*
X132816418Y-78501542D02*
X132959275Y-78120590D01*
X132959275Y-78120590D02*
X133078323Y-77930114D01*
X133078323Y-77930114D02*
X133185466Y-77834876D01*
X133185466Y-77834876D02*
X133387847Y-77739638D01*
X135292609Y-77739638D02*
X135483085Y-77739638D01*
X135483085Y-77739638D02*
X135661656Y-77834876D01*
X135661656Y-77834876D02*
X135744990Y-77930114D01*
X135744990Y-77930114D02*
X135816418Y-78120590D01*
X135816418Y-78120590D02*
X135864037Y-78501542D01*
X135864037Y-78501542D02*
X135804513Y-78977733D01*
X135804513Y-78977733D02*
X135661656Y-79358685D01*
X135661656Y-79358685D02*
X135542609Y-79549161D01*
X135542609Y-79549161D02*
X135435466Y-79644400D01*
X135435466Y-79644400D02*
X135233085Y-79739638D01*
X135233085Y-79739638D02*
X135042609Y-79739638D01*
X135042609Y-79739638D02*
X134864037Y-79644400D01*
X134864037Y-79644400D02*
X134780704Y-79549161D01*
X134780704Y-79549161D02*
X134709275Y-79358685D01*
X134709275Y-79358685D02*
X134661656Y-78977733D01*
X134661656Y-78977733D02*
X134721180Y-78501542D01*
X134721180Y-78501542D02*
X134864037Y-78120590D01*
X134864037Y-78120590D02*
X134983085Y-77930114D01*
X134983085Y-77930114D02*
X135090228Y-77834876D01*
X135090228Y-77834876D02*
X135292609Y-77739638D01*
X136625942Y-77739638D02*
X137959275Y-77739638D01*
X137959275Y-77739638D02*
X136852133Y-79739638D01*
X138530704Y-77739638D02*
X139864037Y-77739638D01*
X139864037Y-77739638D02*
X138756895Y-79739638D01*
X77683082Y-77939638D02*
X77504510Y-79368209D01*
X77504510Y-79368209D02*
X77373558Y-79653923D01*
X77373558Y-79653923D02*
X77159272Y-79844400D01*
X77159272Y-79844400D02*
X76861653Y-79939638D01*
X76861653Y-79939638D02*
X76671177Y-79939638D01*
X79242606Y-79939638D02*
X79373558Y-78892019D01*
X79373558Y-78892019D02*
X79302130Y-78701542D01*
X79302130Y-78701542D02*
X79123558Y-78606304D01*
X79123558Y-78606304D02*
X78742606Y-78606304D01*
X78742606Y-78606304D02*
X78540225Y-78701542D01*
X79254511Y-79844400D02*
X79052130Y-79939638D01*
X79052130Y-79939638D02*
X78575939Y-79939638D01*
X78575939Y-79939638D02*
X78397368Y-79844400D01*
X78397368Y-79844400D02*
X78325939Y-79653923D01*
X78325939Y-79653923D02*
X78349749Y-79463447D01*
X78349749Y-79463447D02*
X78468797Y-79272971D01*
X78468797Y-79272971D02*
X78671178Y-79177733D01*
X78671178Y-79177733D02*
X79147368Y-79177733D01*
X79147368Y-79177733D02*
X79349749Y-79082495D01*
X80171178Y-78606304D02*
X80480702Y-79939638D01*
X81123559Y-78606304D02*
X80480702Y-79939638D01*
X80480702Y-79939638D02*
X80230702Y-80415828D01*
X80230702Y-80415828D02*
X80123559Y-80511066D01*
X80123559Y-80511066D02*
X79921178Y-80606304D01*
X82575940Y-79939638D02*
X82706892Y-78892019D01*
X82706892Y-78892019D02*
X82635464Y-78701542D01*
X82635464Y-78701542D02*
X82456892Y-78606304D01*
X82456892Y-78606304D02*
X82075940Y-78606304D01*
X82075940Y-78606304D02*
X81873559Y-78701542D01*
X82587845Y-79844400D02*
X82385464Y-79939638D01*
X82385464Y-79939638D02*
X81909273Y-79939638D01*
X81909273Y-79939638D02*
X81730702Y-79844400D01*
X81730702Y-79844400D02*
X81659273Y-79653923D01*
X81659273Y-79653923D02*
X81683083Y-79463447D01*
X81683083Y-79463447D02*
X81802131Y-79272971D01*
X81802131Y-79272971D02*
X82004512Y-79177733D01*
X82004512Y-79177733D02*
X82480702Y-79177733D01*
X82480702Y-79177733D02*
X82683083Y-79082495D01*
X83694988Y-78606304D02*
X83528321Y-79939638D01*
X83671178Y-78796780D02*
X83778321Y-78701542D01*
X83778321Y-78701542D02*
X83980702Y-78606304D01*
X83980702Y-78606304D02*
X84266416Y-78606304D01*
X84266416Y-78606304D02*
X84444988Y-78701542D01*
X84444988Y-78701542D02*
X84516416Y-78892019D01*
X84516416Y-78892019D02*
X84385464Y-79939638D01*
X85218798Y-78606304D02*
X85980702Y-78606304D01*
X85587845Y-77939638D02*
X85373560Y-79653923D01*
X85373560Y-79653923D02*
X85444988Y-79844400D01*
X85444988Y-79844400D02*
X85623560Y-79939638D01*
X85623560Y-79939638D02*
X85814036Y-79939638D01*
X88004512Y-79939638D02*
X88254512Y-77939638D01*
X88254512Y-77939638D02*
X88742607Y-79368209D01*
X88742607Y-79368209D02*
X89587846Y-77939638D01*
X89587846Y-77939638D02*
X89337846Y-79939638D01*
X90290226Y-79939638D02*
X90456893Y-78606304D01*
X90540226Y-77939638D02*
X90433083Y-78034876D01*
X90433083Y-78034876D02*
X90516417Y-78130114D01*
X90516417Y-78130114D02*
X90623560Y-78034876D01*
X90623560Y-78034876D02*
X90540226Y-77939638D01*
X90540226Y-77939638D02*
X90516417Y-78130114D01*
X91159274Y-79844400D02*
X91337845Y-79939638D01*
X91337845Y-79939638D02*
X91718798Y-79939638D01*
X91718798Y-79939638D02*
X91921179Y-79844400D01*
X91921179Y-79844400D02*
X92040226Y-79653923D01*
X92040226Y-79653923D02*
X92052131Y-79558685D01*
X92052131Y-79558685D02*
X91980702Y-79368209D01*
X91980702Y-79368209D02*
X91802131Y-79272971D01*
X91802131Y-79272971D02*
X91516417Y-79272971D01*
X91516417Y-79272971D02*
X91337845Y-79177733D01*
X91337845Y-79177733D02*
X91266417Y-78987257D01*
X91266417Y-78987257D02*
X91278322Y-78892019D01*
X91278322Y-78892019D02*
X91397369Y-78701542D01*
X91397369Y-78701542D02*
X91599750Y-78606304D01*
X91599750Y-78606304D02*
X91885464Y-78606304D01*
X91885464Y-78606304D02*
X92064036Y-78701542D01*
X93147370Y-79939638D02*
X92968798Y-79844400D01*
X92968798Y-79844400D02*
X92885465Y-79749161D01*
X92885465Y-79749161D02*
X92814036Y-79558685D01*
X92814036Y-79558685D02*
X92885465Y-78987257D01*
X92885465Y-78987257D02*
X93004512Y-78796780D01*
X93004512Y-78796780D02*
X93111655Y-78701542D01*
X93111655Y-78701542D02*
X93314036Y-78606304D01*
X93314036Y-78606304D02*
X93599750Y-78606304D01*
X93599750Y-78606304D02*
X93778322Y-78701542D01*
X93778322Y-78701542D02*
X93861655Y-78796780D01*
X93861655Y-78796780D02*
X93933084Y-78987257D01*
X93933084Y-78987257D02*
X93861655Y-79558685D01*
X93861655Y-79558685D02*
X93742608Y-79749161D01*
X93742608Y-79749161D02*
X93635465Y-79844400D01*
X93635465Y-79844400D02*
X93433084Y-79939638D01*
X93433084Y-79939638D02*
X93147370Y-79939638D01*
X94480703Y-79939638D02*
X95694989Y-78606304D01*
X94647370Y-78606304D02*
X95528322Y-79939638D01*
D12*
X83915417Y-99054450D02*
X84058274Y-99102069D01*
X84058274Y-99102069D02*
X84296369Y-99102069D01*
X84296369Y-99102069D02*
X84391607Y-99054450D01*
X84391607Y-99054450D02*
X84439226Y-99006830D01*
X84439226Y-99006830D02*
X84486845Y-98911592D01*
X84486845Y-98911592D02*
X84486845Y-98816354D01*
X84486845Y-98816354D02*
X84439226Y-98721116D01*
X84439226Y-98721116D02*
X84391607Y-98673497D01*
X84391607Y-98673497D02*
X84296369Y-98625878D01*
X84296369Y-98625878D02*
X84105893Y-98578259D01*
X84105893Y-98578259D02*
X84010655Y-98530640D01*
X84010655Y-98530640D02*
X83963036Y-98483021D01*
X83963036Y-98483021D02*
X83915417Y-98387783D01*
X83915417Y-98387783D02*
X83915417Y-98292545D01*
X83915417Y-98292545D02*
X83963036Y-98197307D01*
X83963036Y-98197307D02*
X84010655Y-98149688D01*
X84010655Y-98149688D02*
X84105893Y-98102069D01*
X84105893Y-98102069D02*
X84343988Y-98102069D01*
X84343988Y-98102069D02*
X84486845Y-98149688D01*
X84820179Y-98102069D02*
X85058274Y-99102069D01*
X85058274Y-99102069D02*
X85248750Y-98387783D01*
X85248750Y-98387783D02*
X85439226Y-99102069D01*
X85439226Y-99102069D02*
X85677322Y-98102069D01*
X86582083Y-99102069D02*
X86010655Y-99102069D01*
X86296369Y-99102069D02*
X86296369Y-98102069D01*
X86296369Y-98102069D02*
X86201131Y-98244926D01*
X86201131Y-98244926D02*
X86105893Y-98340164D01*
X86105893Y-98340164D02*
X86010655Y-98387783D01*
X102965417Y-99054450D02*
X103108274Y-99102069D01*
X103108274Y-99102069D02*
X103346369Y-99102069D01*
X103346369Y-99102069D02*
X103441607Y-99054450D01*
X103441607Y-99054450D02*
X103489226Y-99006830D01*
X103489226Y-99006830D02*
X103536845Y-98911592D01*
X103536845Y-98911592D02*
X103536845Y-98816354D01*
X103536845Y-98816354D02*
X103489226Y-98721116D01*
X103489226Y-98721116D02*
X103441607Y-98673497D01*
X103441607Y-98673497D02*
X103346369Y-98625878D01*
X103346369Y-98625878D02*
X103155893Y-98578259D01*
X103155893Y-98578259D02*
X103060655Y-98530640D01*
X103060655Y-98530640D02*
X103013036Y-98483021D01*
X103013036Y-98483021D02*
X102965417Y-98387783D01*
X102965417Y-98387783D02*
X102965417Y-98292545D01*
X102965417Y-98292545D02*
X103013036Y-98197307D01*
X103013036Y-98197307D02*
X103060655Y-98149688D01*
X103060655Y-98149688D02*
X103155893Y-98102069D01*
X103155893Y-98102069D02*
X103393988Y-98102069D01*
X103393988Y-98102069D02*
X103536845Y-98149688D01*
X103870179Y-98102069D02*
X104108274Y-99102069D01*
X104108274Y-99102069D02*
X104298750Y-98387783D01*
X104298750Y-98387783D02*
X104489226Y-99102069D01*
X104489226Y-99102069D02*
X104727322Y-98102069D01*
X105536845Y-98435402D02*
X105536845Y-99102069D01*
X105298750Y-98054450D02*
X105060655Y-98768735D01*
X105060655Y-98768735D02*
X105679702Y-98768735D01*
X132131905Y-84274819D02*
X132131905Y-83274819D01*
X132131905Y-83274819D02*
X132370000Y-83274819D01*
X132370000Y-83274819D02*
X132512857Y-83322438D01*
X132512857Y-83322438D02*
X132608095Y-83417676D01*
X132608095Y-83417676D02*
X132655714Y-83512914D01*
X132655714Y-83512914D02*
X132703333Y-83703390D01*
X132703333Y-83703390D02*
X132703333Y-83846247D01*
X132703333Y-83846247D02*
X132655714Y-84036723D01*
X132655714Y-84036723D02*
X132608095Y-84131961D01*
X132608095Y-84131961D02*
X132512857Y-84227200D01*
X132512857Y-84227200D02*
X132370000Y-84274819D01*
X132370000Y-84274819D02*
X132131905Y-84274819D01*
X133036667Y-83274819D02*
X133655714Y-83274819D01*
X133655714Y-83274819D02*
X133322381Y-83655771D01*
X133322381Y-83655771D02*
X133465238Y-83655771D01*
X133465238Y-83655771D02*
X133560476Y-83703390D01*
X133560476Y-83703390D02*
X133608095Y-83751009D01*
X133608095Y-83751009D02*
X133655714Y-83846247D01*
X133655714Y-83846247D02*
X133655714Y-84084342D01*
X133655714Y-84084342D02*
X133608095Y-84179580D01*
X133608095Y-84179580D02*
X133560476Y-84227200D01*
X133560476Y-84227200D02*
X133465238Y-84274819D01*
X133465238Y-84274819D02*
X133179524Y-84274819D01*
X133179524Y-84274819D02*
X133084286Y-84227200D01*
X133084286Y-84227200D02*
X133036667Y-84179580D01*
X129898571Y-84577295D02*
X129441428Y-84577295D01*
X129670000Y-84577295D02*
X129670000Y-83777295D01*
X129670000Y-83777295D02*
X129593809Y-83891580D01*
X129593809Y-83891580D02*
X129517619Y-83967771D01*
X129517619Y-83967771D02*
X129441428Y-84005866D01*
X122769405Y-89989819D02*
X122769405Y-88989819D01*
X122769405Y-88989819D02*
X123007500Y-88989819D01*
X123007500Y-88989819D02*
X123150357Y-89037438D01*
X123150357Y-89037438D02*
X123245595Y-89132676D01*
X123245595Y-89132676D02*
X123293214Y-89227914D01*
X123293214Y-89227914D02*
X123340833Y-89418390D01*
X123340833Y-89418390D02*
X123340833Y-89561247D01*
X123340833Y-89561247D02*
X123293214Y-89751723D01*
X123293214Y-89751723D02*
X123245595Y-89846961D01*
X123245595Y-89846961D02*
X123150357Y-89942200D01*
X123150357Y-89942200D02*
X123007500Y-89989819D01*
X123007500Y-89989819D02*
X122769405Y-89989819D01*
X123817024Y-89989819D02*
X124007500Y-89989819D01*
X124007500Y-89989819D02*
X124102738Y-89942200D01*
X124102738Y-89942200D02*
X124150357Y-89894580D01*
X124150357Y-89894580D02*
X124245595Y-89751723D01*
X124245595Y-89751723D02*
X124293214Y-89561247D01*
X124293214Y-89561247D02*
X124293214Y-89180295D01*
X124293214Y-89180295D02*
X124245595Y-89085057D01*
X124245595Y-89085057D02*
X124197976Y-89037438D01*
X124197976Y-89037438D02*
X124102738Y-88989819D01*
X124102738Y-88989819D02*
X123912262Y-88989819D01*
X123912262Y-88989819D02*
X123817024Y-89037438D01*
X123817024Y-89037438D02*
X123769405Y-89085057D01*
X123769405Y-89085057D02*
X123721786Y-89180295D01*
X123721786Y-89180295D02*
X123721786Y-89418390D01*
X123721786Y-89418390D02*
X123769405Y-89513628D01*
X123769405Y-89513628D02*
X123817024Y-89561247D01*
X123817024Y-89561247D02*
X123912262Y-89608866D01*
X123912262Y-89608866D02*
X124102738Y-89608866D01*
X124102738Y-89608866D02*
X124197976Y-89561247D01*
X124197976Y-89561247D02*
X124245595Y-89513628D01*
X124245595Y-89513628D02*
X124293214Y-89418390D01*
X122123571Y-91721045D02*
X121666428Y-91721045D01*
X121895000Y-91721045D02*
X121895000Y-90921045D01*
X121895000Y-90921045D02*
X121818809Y-91035330D01*
X121818809Y-91035330D02*
X121742619Y-91111521D01*
X121742619Y-91111521D02*
X121666428Y-91149616D01*
X83915417Y-118104450D02*
X84058274Y-118152069D01*
X84058274Y-118152069D02*
X84296369Y-118152069D01*
X84296369Y-118152069D02*
X84391607Y-118104450D01*
X84391607Y-118104450D02*
X84439226Y-118056830D01*
X84439226Y-118056830D02*
X84486845Y-117961592D01*
X84486845Y-117961592D02*
X84486845Y-117866354D01*
X84486845Y-117866354D02*
X84439226Y-117771116D01*
X84439226Y-117771116D02*
X84391607Y-117723497D01*
X84391607Y-117723497D02*
X84296369Y-117675878D01*
X84296369Y-117675878D02*
X84105893Y-117628259D01*
X84105893Y-117628259D02*
X84010655Y-117580640D01*
X84010655Y-117580640D02*
X83963036Y-117533021D01*
X83963036Y-117533021D02*
X83915417Y-117437783D01*
X83915417Y-117437783D02*
X83915417Y-117342545D01*
X83915417Y-117342545D02*
X83963036Y-117247307D01*
X83963036Y-117247307D02*
X84010655Y-117199688D01*
X84010655Y-117199688D02*
X84105893Y-117152069D01*
X84105893Y-117152069D02*
X84343988Y-117152069D01*
X84343988Y-117152069D02*
X84486845Y-117199688D01*
X84820179Y-117152069D02*
X85058274Y-118152069D01*
X85058274Y-118152069D02*
X85248750Y-117437783D01*
X85248750Y-117437783D02*
X85439226Y-118152069D01*
X85439226Y-118152069D02*
X85677322Y-117152069D01*
X86486845Y-117152069D02*
X86296369Y-117152069D01*
X86296369Y-117152069D02*
X86201131Y-117199688D01*
X86201131Y-117199688D02*
X86153512Y-117247307D01*
X86153512Y-117247307D02*
X86058274Y-117390164D01*
X86058274Y-117390164D02*
X86010655Y-117580640D01*
X86010655Y-117580640D02*
X86010655Y-117961592D01*
X86010655Y-117961592D02*
X86058274Y-118056830D01*
X86058274Y-118056830D02*
X86105893Y-118104450D01*
X86105893Y-118104450D02*
X86201131Y-118152069D01*
X86201131Y-118152069D02*
X86391607Y-118152069D01*
X86391607Y-118152069D02*
X86486845Y-118104450D01*
X86486845Y-118104450D02*
X86534464Y-118056830D01*
X86534464Y-118056830D02*
X86582083Y-117961592D01*
X86582083Y-117961592D02*
X86582083Y-117723497D01*
X86582083Y-117723497D02*
X86534464Y-117628259D01*
X86534464Y-117628259D02*
X86486845Y-117580640D01*
X86486845Y-117580640D02*
X86391607Y-117533021D01*
X86391607Y-117533021D02*
X86201131Y-117533021D01*
X86201131Y-117533021D02*
X86105893Y-117580640D01*
X86105893Y-117580640D02*
X86058274Y-117628259D01*
X86058274Y-117628259D02*
X86010655Y-117723497D01*
X114289819Y-123356666D02*
X113813628Y-123689999D01*
X114289819Y-123928094D02*
X113289819Y-123928094D01*
X113289819Y-123928094D02*
X113289819Y-123547142D01*
X113289819Y-123547142D02*
X113337438Y-123451904D01*
X113337438Y-123451904D02*
X113385057Y-123404285D01*
X113385057Y-123404285D02*
X113480295Y-123356666D01*
X113480295Y-123356666D02*
X113623152Y-123356666D01*
X113623152Y-123356666D02*
X113718390Y-123404285D01*
X113718390Y-123404285D02*
X113766009Y-123451904D01*
X113766009Y-123451904D02*
X113813628Y-123547142D01*
X113813628Y-123547142D02*
X113813628Y-123928094D01*
X114289819Y-122404285D02*
X114289819Y-122975713D01*
X114289819Y-122689999D02*
X113289819Y-122689999D01*
X113289819Y-122689999D02*
X113432676Y-122785237D01*
X113432676Y-122785237D02*
X113527914Y-122880475D01*
X113527914Y-122880475D02*
X113575533Y-122975713D01*
X117089226Y-97347200D02*
X117232083Y-97394819D01*
X117232083Y-97394819D02*
X117470178Y-97394819D01*
X117470178Y-97394819D02*
X117565416Y-97347200D01*
X117565416Y-97347200D02*
X117613035Y-97299580D01*
X117613035Y-97299580D02*
X117660654Y-97204342D01*
X117660654Y-97204342D02*
X117660654Y-97109104D01*
X117660654Y-97109104D02*
X117613035Y-97013866D01*
X117613035Y-97013866D02*
X117565416Y-96966247D01*
X117565416Y-96966247D02*
X117470178Y-96918628D01*
X117470178Y-96918628D02*
X117279702Y-96871009D01*
X117279702Y-96871009D02*
X117184464Y-96823390D01*
X117184464Y-96823390D02*
X117136845Y-96775771D01*
X117136845Y-96775771D02*
X117089226Y-96680533D01*
X117089226Y-96680533D02*
X117089226Y-96585295D01*
X117089226Y-96585295D02*
X117136845Y-96490057D01*
X117136845Y-96490057D02*
X117184464Y-96442438D01*
X117184464Y-96442438D02*
X117279702Y-96394819D01*
X117279702Y-96394819D02*
X117517797Y-96394819D01*
X117517797Y-96394819D02*
X117660654Y-96442438D01*
X117993988Y-96394819D02*
X118232083Y-97394819D01*
X118232083Y-97394819D02*
X118422559Y-96680533D01*
X118422559Y-96680533D02*
X118613035Y-97394819D01*
X118613035Y-97394819D02*
X118851131Y-96394819D01*
X119755892Y-97394819D02*
X119184464Y-97394819D01*
X119470178Y-97394819D02*
X119470178Y-96394819D01*
X119470178Y-96394819D02*
X119374940Y-96537676D01*
X119374940Y-96537676D02*
X119279702Y-96632914D01*
X119279702Y-96632914D02*
X119184464Y-96680533D01*
X120374940Y-96394819D02*
X120470178Y-96394819D01*
X120470178Y-96394819D02*
X120565416Y-96442438D01*
X120565416Y-96442438D02*
X120613035Y-96490057D01*
X120613035Y-96490057D02*
X120660654Y-96585295D01*
X120660654Y-96585295D02*
X120708273Y-96775771D01*
X120708273Y-96775771D02*
X120708273Y-97013866D01*
X120708273Y-97013866D02*
X120660654Y-97204342D01*
X120660654Y-97204342D02*
X120613035Y-97299580D01*
X120613035Y-97299580D02*
X120565416Y-97347200D01*
X120565416Y-97347200D02*
X120470178Y-97394819D01*
X120470178Y-97394819D02*
X120374940Y-97394819D01*
X120374940Y-97394819D02*
X120279702Y-97347200D01*
X120279702Y-97347200D02*
X120232083Y-97299580D01*
X120232083Y-97299580D02*
X120184464Y-97204342D01*
X120184464Y-97204342D02*
X120136845Y-97013866D01*
X120136845Y-97013866D02*
X120136845Y-96775771D01*
X120136845Y-96775771D02*
X120184464Y-96585295D01*
X120184464Y-96585295D02*
X120232083Y-96490057D01*
X120232083Y-96490057D02*
X120279702Y-96442438D01*
X120279702Y-96442438D02*
X120374940Y-96394819D01*
X132959819Y-108765594D02*
X131959819Y-108765594D01*
X131959819Y-108765594D02*
X131959819Y-108527499D01*
X131959819Y-108527499D02*
X132007438Y-108384642D01*
X132007438Y-108384642D02*
X132102676Y-108289404D01*
X132102676Y-108289404D02*
X132197914Y-108241785D01*
X132197914Y-108241785D02*
X132388390Y-108194166D01*
X132388390Y-108194166D02*
X132531247Y-108194166D01*
X132531247Y-108194166D02*
X132721723Y-108241785D01*
X132721723Y-108241785D02*
X132816961Y-108289404D01*
X132816961Y-108289404D02*
X132912200Y-108384642D01*
X132912200Y-108384642D02*
X132959819Y-108527499D01*
X132959819Y-108527499D02*
X132959819Y-108765594D01*
X132293152Y-107337023D02*
X132959819Y-107337023D01*
X131912200Y-107575118D02*
X132626485Y-107813213D01*
X132626485Y-107813213D02*
X132626485Y-107194166D01*
X134742295Y-110998928D02*
X134742295Y-111456071D01*
X134742295Y-111227499D02*
X133942295Y-111227499D01*
X133942295Y-111227499D02*
X134056580Y-111303690D01*
X134056580Y-111303690D02*
X134132771Y-111379880D01*
X134132771Y-111379880D02*
X134170866Y-111456071D01*
D13*
X137608442Y-136503705D02*
X137608442Y-137137012D01*
X137608442Y-137137012D02*
X137645696Y-137211518D01*
X137645696Y-137211518D02*
X137682949Y-137248772D01*
X137682949Y-137248772D02*
X137757456Y-137286025D01*
X137757456Y-137286025D02*
X137906469Y-137286025D01*
X137906469Y-137286025D02*
X137980976Y-137248772D01*
X137980976Y-137248772D02*
X138018229Y-137211518D01*
X138018229Y-137211518D02*
X138055482Y-137137012D01*
X138055482Y-137137012D02*
X138055482Y-136503705D01*
X138837802Y-137286025D02*
X138390762Y-137286025D01*
X138614282Y-137286025D02*
X138614282Y-136503705D01*
X138614282Y-136503705D02*
X138539775Y-136615465D01*
X138539775Y-136615465D02*
X138465269Y-136689972D01*
X138465269Y-136689972D02*
X138390762Y-136727225D01*
D12*
X124356905Y-84274819D02*
X124356905Y-83274819D01*
X124356905Y-83274819D02*
X124595000Y-83274819D01*
X124595000Y-83274819D02*
X124737857Y-83322438D01*
X124737857Y-83322438D02*
X124833095Y-83417676D01*
X124833095Y-83417676D02*
X124880714Y-83512914D01*
X124880714Y-83512914D02*
X124928333Y-83703390D01*
X124928333Y-83703390D02*
X124928333Y-83846247D01*
X124928333Y-83846247D02*
X124880714Y-84036723D01*
X124880714Y-84036723D02*
X124833095Y-84131961D01*
X124833095Y-84131961D02*
X124737857Y-84227200D01*
X124737857Y-84227200D02*
X124595000Y-84274819D01*
X124595000Y-84274819D02*
X124356905Y-84274819D01*
X125499762Y-83703390D02*
X125404524Y-83655771D01*
X125404524Y-83655771D02*
X125356905Y-83608152D01*
X125356905Y-83608152D02*
X125309286Y-83512914D01*
X125309286Y-83512914D02*
X125309286Y-83465295D01*
X125309286Y-83465295D02*
X125356905Y-83370057D01*
X125356905Y-83370057D02*
X125404524Y-83322438D01*
X125404524Y-83322438D02*
X125499762Y-83274819D01*
X125499762Y-83274819D02*
X125690238Y-83274819D01*
X125690238Y-83274819D02*
X125785476Y-83322438D01*
X125785476Y-83322438D02*
X125833095Y-83370057D01*
X125833095Y-83370057D02*
X125880714Y-83465295D01*
X125880714Y-83465295D02*
X125880714Y-83512914D01*
X125880714Y-83512914D02*
X125833095Y-83608152D01*
X125833095Y-83608152D02*
X125785476Y-83655771D01*
X125785476Y-83655771D02*
X125690238Y-83703390D01*
X125690238Y-83703390D02*
X125499762Y-83703390D01*
X125499762Y-83703390D02*
X125404524Y-83751009D01*
X125404524Y-83751009D02*
X125356905Y-83798628D01*
X125356905Y-83798628D02*
X125309286Y-83893866D01*
X125309286Y-83893866D02*
X125309286Y-84084342D01*
X125309286Y-84084342D02*
X125356905Y-84179580D01*
X125356905Y-84179580D02*
X125404524Y-84227200D01*
X125404524Y-84227200D02*
X125499762Y-84274819D01*
X125499762Y-84274819D02*
X125690238Y-84274819D01*
X125690238Y-84274819D02*
X125785476Y-84227200D01*
X125785476Y-84227200D02*
X125833095Y-84179580D01*
X125833095Y-84179580D02*
X125880714Y-84084342D01*
X125880714Y-84084342D02*
X125880714Y-83893866D01*
X125880714Y-83893866D02*
X125833095Y-83798628D01*
X125833095Y-83798628D02*
X125785476Y-83751009D01*
X125785476Y-83751009D02*
X125690238Y-83703390D01*
X122123571Y-84577295D02*
X121666428Y-84577295D01*
X121895000Y-84577295D02*
X121895000Y-83777295D01*
X121895000Y-83777295D02*
X121818809Y-83891580D01*
X121818809Y-83891580D02*
X121742619Y-83967771D01*
X121742619Y-83967771D02*
X121666428Y-84005866D01*
X132929405Y-90624819D02*
X132929405Y-89624819D01*
X132929405Y-89624819D02*
X133167500Y-89624819D01*
X133167500Y-89624819D02*
X133310357Y-89672438D01*
X133310357Y-89672438D02*
X133405595Y-89767676D01*
X133405595Y-89767676D02*
X133453214Y-89862914D01*
X133453214Y-89862914D02*
X133500833Y-90053390D01*
X133500833Y-90053390D02*
X133500833Y-90196247D01*
X133500833Y-90196247D02*
X133453214Y-90386723D01*
X133453214Y-90386723D02*
X133405595Y-90481961D01*
X133405595Y-90481961D02*
X133310357Y-90577200D01*
X133310357Y-90577200D02*
X133167500Y-90624819D01*
X133167500Y-90624819D02*
X132929405Y-90624819D01*
X134405595Y-89624819D02*
X133929405Y-89624819D01*
X133929405Y-89624819D02*
X133881786Y-90101009D01*
X133881786Y-90101009D02*
X133929405Y-90053390D01*
X133929405Y-90053390D02*
X134024643Y-90005771D01*
X134024643Y-90005771D02*
X134262738Y-90005771D01*
X134262738Y-90005771D02*
X134357976Y-90053390D01*
X134357976Y-90053390D02*
X134405595Y-90101009D01*
X134405595Y-90101009D02*
X134453214Y-90196247D01*
X134453214Y-90196247D02*
X134453214Y-90434342D01*
X134453214Y-90434342D02*
X134405595Y-90529580D01*
X134405595Y-90529580D02*
X134357976Y-90577200D01*
X134357976Y-90577200D02*
X134262738Y-90624819D01*
X134262738Y-90624819D02*
X134024643Y-90624819D01*
X134024643Y-90624819D02*
X133929405Y-90577200D01*
X133929405Y-90577200D02*
X133881786Y-90529580D01*
X129898571Y-91721045D02*
X129441428Y-91721045D01*
X129670000Y-91721045D02*
X129670000Y-90921045D01*
X129670000Y-90921045D02*
X129593809Y-91035330D01*
X129593809Y-91035330D02*
X129517619Y-91111521D01*
X129517619Y-91111521D02*
X129441428Y-91149616D01*
X102965417Y-118104450D02*
X103108274Y-118152069D01*
X103108274Y-118152069D02*
X103346369Y-118152069D01*
X103346369Y-118152069D02*
X103441607Y-118104450D01*
X103441607Y-118104450D02*
X103489226Y-118056830D01*
X103489226Y-118056830D02*
X103536845Y-117961592D01*
X103536845Y-117961592D02*
X103536845Y-117866354D01*
X103536845Y-117866354D02*
X103489226Y-117771116D01*
X103489226Y-117771116D02*
X103441607Y-117723497D01*
X103441607Y-117723497D02*
X103346369Y-117675878D01*
X103346369Y-117675878D02*
X103155893Y-117628259D01*
X103155893Y-117628259D02*
X103060655Y-117580640D01*
X103060655Y-117580640D02*
X103013036Y-117533021D01*
X103013036Y-117533021D02*
X102965417Y-117437783D01*
X102965417Y-117437783D02*
X102965417Y-117342545D01*
X102965417Y-117342545D02*
X103013036Y-117247307D01*
X103013036Y-117247307D02*
X103060655Y-117199688D01*
X103060655Y-117199688D02*
X103155893Y-117152069D01*
X103155893Y-117152069D02*
X103393988Y-117152069D01*
X103393988Y-117152069D02*
X103536845Y-117199688D01*
X103870179Y-117152069D02*
X104108274Y-118152069D01*
X104108274Y-118152069D02*
X104298750Y-117437783D01*
X104298750Y-117437783D02*
X104489226Y-118152069D01*
X104489226Y-118152069D02*
X104727322Y-117152069D01*
X105584464Y-117152069D02*
X105108274Y-117152069D01*
X105108274Y-117152069D02*
X105060655Y-117628259D01*
X105060655Y-117628259D02*
X105108274Y-117580640D01*
X105108274Y-117580640D02*
X105203512Y-117533021D01*
X105203512Y-117533021D02*
X105441607Y-117533021D01*
X105441607Y-117533021D02*
X105536845Y-117580640D01*
X105536845Y-117580640D02*
X105584464Y-117628259D01*
X105584464Y-117628259D02*
X105632083Y-117723497D01*
X105632083Y-117723497D02*
X105632083Y-117961592D01*
X105632083Y-117961592D02*
X105584464Y-118056830D01*
X105584464Y-118056830D02*
X105536845Y-118104450D01*
X105536845Y-118104450D02*
X105441607Y-118152069D01*
X105441607Y-118152069D02*
X105203512Y-118152069D01*
X105203512Y-118152069D02*
X105108274Y-118104450D01*
X105108274Y-118104450D02*
X105060655Y-118056830D01*
X132959819Y-100115594D02*
X131959819Y-100115594D01*
X131959819Y-100115594D02*
X131959819Y-99877499D01*
X131959819Y-99877499D02*
X132007438Y-99734642D01*
X132007438Y-99734642D02*
X132102676Y-99639404D01*
X132102676Y-99639404D02*
X132197914Y-99591785D01*
X132197914Y-99591785D02*
X132388390Y-99544166D01*
X132388390Y-99544166D02*
X132531247Y-99544166D01*
X132531247Y-99544166D02*
X132721723Y-99591785D01*
X132721723Y-99591785D02*
X132816961Y-99639404D01*
X132816961Y-99639404D02*
X132912200Y-99734642D01*
X132912200Y-99734642D02*
X132959819Y-99877499D01*
X132959819Y-99877499D02*
X132959819Y-100115594D01*
X132055057Y-99163213D02*
X132007438Y-99115594D01*
X132007438Y-99115594D02*
X131959819Y-99020356D01*
X131959819Y-99020356D02*
X131959819Y-98782261D01*
X131959819Y-98782261D02*
X132007438Y-98687023D01*
X132007438Y-98687023D02*
X132055057Y-98639404D01*
X132055057Y-98639404D02*
X132150295Y-98591785D01*
X132150295Y-98591785D02*
X132245533Y-98591785D01*
X132245533Y-98591785D02*
X132388390Y-98639404D01*
X132388390Y-98639404D02*
X132959819Y-99210832D01*
X132959819Y-99210832D02*
X132959819Y-98591785D01*
X134742295Y-102348928D02*
X134742295Y-102806071D01*
X134742295Y-102577499D02*
X133942295Y-102577499D01*
X133942295Y-102577499D02*
X134056580Y-102653690D01*
X134056580Y-102653690D02*
X134132771Y-102729880D01*
X134132771Y-102729880D02*
X134170866Y-102806071D01*
D14*
%TO.C,J1*%
X79106250Y-91440000D02*
X79106250Y-83710000D01*
X81866250Y-83710000D02*
X79106250Y-83710000D01*
X81866250Y-91440000D02*
X79106250Y-91440000D01*
X81866250Y-91440000D02*
X81866250Y-83710000D01*
X81866250Y-92710000D02*
X81866250Y-94090000D01*
X81866250Y-94090000D02*
X80486250Y-94090000D01*
%TO.C,SW1*%
X78263750Y-99536250D02*
X92233750Y-99536250D01*
X78263750Y-113506250D02*
X78263750Y-99536250D01*
X92233750Y-99536250D02*
X92233750Y-113506250D01*
X92233750Y-113506250D02*
X78263750Y-113506250D01*
%TO.C,SW4*%
X97313750Y-99536250D02*
X111283750Y-99536250D01*
X97313750Y-113506250D02*
X97313750Y-99536250D01*
X111283750Y-99536250D02*
X111283750Y-113506250D01*
X111283750Y-113506250D02*
X97313750Y-113506250D01*
%TO.C,D3*%
X130070000Y-83090000D02*
X130070000Y-87090000D01*
X130070000Y-83090000D02*
X135670000Y-83090000D01*
X130070000Y-87090000D02*
X135070000Y-87090000D01*
X135670000Y-86490000D02*
X135070000Y-87090000D01*
X135670000Y-86490000D02*
X135670000Y-83090000D01*
%TO.C,D9*%
X122295000Y-90233750D02*
X122295000Y-94233750D01*
X122295000Y-90233750D02*
X127895000Y-90233750D01*
X122295000Y-94233750D02*
X127295000Y-94233750D01*
X127895000Y-93633750D02*
X127295000Y-94233750D01*
X127895000Y-93633750D02*
X127895000Y-90233750D01*
%TO.C,SW6*%
X78263750Y-118586250D02*
X92233750Y-118586250D01*
X78263750Y-132556250D02*
X78263750Y-118586250D01*
X92233750Y-118586250D02*
X92233750Y-132556250D01*
X92233750Y-132556250D02*
X78263750Y-132556250D01*
%TO.C,R1*%
X116205000Y-119150000D02*
X116205000Y-119920000D01*
X116205000Y-127230000D02*
X116205000Y-126460000D01*
X114835000Y-126460000D02*
X117575000Y-126460000D01*
X117575000Y-119920000D01*
X114835000Y-119920000D01*
X114835000Y-126460000D01*
%TO.C,SW10*%
X115798750Y-100040000D02*
X116398750Y-100040000D01*
X116098750Y-100340000D02*
X115798750Y-100040000D01*
X116398750Y-100040000D02*
X116098750Y-100340000D01*
X117498750Y-98240000D02*
X117498750Y-110040000D01*
X121598750Y-98240000D02*
X117498750Y-98240000D01*
X121598750Y-110040000D02*
X117498750Y-110040000D01*
X123098750Y-104140000D02*
X124098750Y-104140000D01*
X123598750Y-103640000D02*
X123598750Y-104640000D01*
X125598750Y-98240000D02*
X129698750Y-98240000D01*
X129698750Y-98240000D02*
X129698750Y-100640000D01*
X129698750Y-102840000D02*
X129698750Y-105440000D01*
X129698750Y-107640000D02*
X129698750Y-110040000D01*
X129698750Y-110040000D02*
X125598750Y-110040000D01*
X126598750Y-104140000D02*
G75*
G02*
X120598750Y-104140000I-3000000J0D01*
G01*
X120598750Y-104140000D02*
G75*
G02*
X126598750Y-104140000I3000000J0D01*
G01*
%TO.C,D4*%
X133255000Y-110827500D02*
X133255000Y-105227500D01*
X133255000Y-110827500D02*
X137255000Y-110827500D01*
X136655000Y-105227500D02*
X133255000Y-105227500D01*
X136655000Y-105227500D02*
X137255000Y-105827500D01*
X137255000Y-110827500D02*
X137255000Y-105827500D01*
D11*
%TO.C,U1*%
X120777000Y-116459000D02*
X120777000Y-133604000D01*
X122682000Y-135509000D02*
X136652000Y-135509000D01*
D15*
X125163000Y-136419000D02*
X125163000Y-135509000D01*
X133658272Y-136919000D02*
X125663000Y-136919000D01*
X134162000Y-135509000D02*
X134158272Y-136419272D01*
D11*
X136652000Y-114554000D02*
X122682000Y-114554000D01*
X138557000Y-116459000D02*
X138557000Y-133604000D01*
X120777000Y-116459000D02*
G75*
G02*
X122682000Y-114554000I1905000J0D01*
G01*
X122682000Y-135509000D02*
G75*
G02*
X120777000Y-133604000I0J1905000D01*
G01*
D15*
X125663000Y-136919000D02*
G75*
G02*
X125163000Y-136419000I0J500000D01*
G01*
X134158272Y-136419272D02*
G75*
G02*
X133658272Y-136918999I-500018J291D01*
G01*
D11*
X136652000Y-114554000D02*
G75*
G02*
X138557000Y-116459000I-1J-1905001D01*
G01*
X138557000Y-133608000D02*
G75*
G02*
X136652000Y-135513000I-1905001J1D01*
G01*
D16*
X137745000Y-134376000D02*
G75*
G02*
X137241000Y-134376000I-252000J0D01*
G01*
X137241000Y-134376000D02*
G75*
G02*
X137745000Y-134376000I252000J0D01*
G01*
X139019000Y-135093000D02*
G75*
G02*
X138515000Y-135093000I-252000J0D01*
G01*
X138515000Y-135093000D02*
G75*
G02*
X139019000Y-135093000I252000J0D01*
G01*
D14*
%TO.C,D8*%
X122295000Y-83090000D02*
X122295000Y-87090000D01*
X122295000Y-83090000D02*
X127895000Y-83090000D01*
X122295000Y-87090000D02*
X127295000Y-87090000D01*
X127895000Y-86490000D02*
X127295000Y-87090000D01*
X127895000Y-86490000D02*
X127895000Y-83090000D01*
%TO.C,D5*%
X130070000Y-90233750D02*
X130070000Y-94233750D01*
X130070000Y-90233750D02*
X135670000Y-90233750D01*
X130070000Y-94233750D02*
X135070000Y-94233750D01*
X135670000Y-93633750D02*
X135070000Y-94233750D01*
X135670000Y-93633750D02*
X135670000Y-90233750D01*
%TO.C,SW5*%
X97313750Y-118586250D02*
X111283750Y-118586250D01*
X97313750Y-132556250D02*
X97313750Y-118586250D01*
X111283750Y-118586250D02*
X111283750Y-132556250D01*
X111283750Y-132556250D02*
X97313750Y-132556250D01*
%TO.C,D2*%
X133255000Y-102177500D02*
X133255000Y-96577500D01*
X133255000Y-102177500D02*
X137255000Y-102177500D01*
X136655000Y-96577500D02*
X133255000Y-96577500D01*
X136655000Y-96577500D02*
X137255000Y-97177500D01*
X137255000Y-102177500D02*
X137255000Y-97177500D01*
%TD*%
M02*
