%TF.GenerationSoftware,KiCad,Pcbnew,9.0.4*%
%TF.CreationDate,2026-01-21T00:58:39+05:30*%
%TF.ProjectId,Jayant co2 Hackpad,4a617961-6e74-4206-936f-32204861636b,rev?*%
%TF.SameCoordinates,Original*%
%TF.FileFunction,Paste,Top*%
%TF.FilePolarity,Positive*%
%FSLAX46Y46*%
G04 Gerber Fmt 4.6, Leading zero omitted, Abs format (unit mm)*
G04 Created by KiCad (PCBNEW 9.0.4) date 2026-01-21 00:58:39*
%MOMM*%
%LPD*%
G01*
G04 APERTURE LIST*
G04 Aperture macros list*
%AMRoundRect*
0 Rectangle with rounded corners*
0 $1 Rounding radius*
0 $2 $3 $4 $5 $6 $7 $8 $9 X,Y pos of 4 corners*
0 Add a 4 corners polygon primitive as box body*
4,1,4,$2,$3,$4,$5,$6,$7,$8,$9,$2,$3,0*
0 Add four circle primitives for the rounded corners*
1,1,$1+$1,$2,$3*
1,1,$1+$1,$4,$5*
1,1,$1+$1,$6,$7*
1,1,$1+$1,$8,$9*
0 Add four rect primitives between the rounded corners*
20,1,$1+$1,$2,$3,$4,$5,0*
20,1,$1+$1,$4,$5,$6,$7,0*
20,1,$1+$1,$6,$7,$8,$9,0*
20,1,$1+$1,$8,$9,$2,$3,0*%
G04 Aperture macros list end*
%ADD10R,1.600000X0.850000*%
%ADD11R,0.850000X1.600000*%
%ADD12RoundRect,0.500000X0.875000X0.500000X-0.875000X0.500000X-0.875000X-0.500000X0.875000X-0.500000X0*%
%ADD13RoundRect,0.275000X0.275000X-0.975000X0.275000X0.975000X-0.275000X0.975000X-0.275000X-0.975000X0*%
%ADD14C,1.700000*%
G04 APERTURE END LIST*
D10*
%TO.C,D3*%
X131120000Y-84215000D03*
X131120000Y-85965000D03*
X134620000Y-85965000D03*
X134620000Y-84215000D03*
%TD*%
%TO.C,D9*%
X123345000Y-91358750D03*
X123345000Y-93108750D03*
X126845000Y-93108750D03*
X126845000Y-91358750D03*
%TD*%
D11*
%TO.C,D4*%
X134380000Y-109777500D03*
X136130000Y-109777500D03*
X136130000Y-106277500D03*
X134380000Y-106277500D03*
%TD*%
D12*
%TO.C,U1*%
X137722000Y-132592000D03*
X137722000Y-130052000D03*
X137722000Y-127512000D03*
X137722000Y-124972000D03*
X137722000Y-122432000D03*
X137722000Y-119892000D03*
X137722000Y-117352000D03*
X121557000Y-117352000D03*
X121557000Y-119892000D03*
X121557000Y-122432000D03*
X121557000Y-124972000D03*
X121557000Y-127512000D03*
X121557000Y-130052000D03*
X121557000Y-132592000D03*
D13*
X130810000Y-116332000D03*
X128270000Y-116332000D03*
D14*
X130810000Y-133350000D03*
X128270000Y-133350000D03*
X130810000Y-130810000D03*
X128270000Y-130810000D03*
%TD*%
D10*
%TO.C,D8*%
X123345000Y-84215000D03*
X123345000Y-85965000D03*
X126845000Y-85965000D03*
X126845000Y-84215000D03*
%TD*%
%TO.C,D5*%
X131120000Y-91358750D03*
X131120000Y-93108750D03*
X134620000Y-93108750D03*
X134620000Y-91358750D03*
%TD*%
D11*
%TO.C,D2*%
X134380000Y-101127500D03*
X136130000Y-101127500D03*
X136130000Y-97627500D03*
X134380000Y-97627500D03*
%TD*%
M02*
