M48
; DRILL file {KiCad 9.0.4} date 2026-01-21T00:58:47+0530
; FORMAT={-:-/ absolute / metric / decimal}
; #@! TF.CreationDate,2026-01-21T00:58:47+05:30
; #@! TF.GenerationSoftware,Kicad,Pcbnew,9.0.4
; #@! TF.FileFunction,Plated,1,2,PTH
FMAT,2
METRIC
; #@! TA.AperFunction,Plated,PTH,ViaDrill
T1C0.400
; #@! TA.AperFunction,Plated,PTH,ComponentDrill
T2C0.800
; #@! TA.AperFunction,Plated,PTH,ComponentDrill
T3C1.000
; #@! TA.AperFunction,Plated,PTH,ComponentDrill
T4C1.500
%
G90
G05
T1
X85.725Y-111.76
X90.17Y-111.76
X101.6Y-127.635
X101.6Y-130.81
X103.505Y-110.49
X103.505Y-113.03
X116.205Y-125.73
X118.11Y-119.38
X118.11Y-121.92
X118.745Y-116.84
X118.745Y-127.0
X124.777Y-88.265
X125.095Y-116.205
X125.095Y-118.745
X125.095Y-127.0
X125.412Y-90.805
X125.73Y-114.935
X125.73Y-124.46
X125.73Y-128.905
X126.845Y-85.965
X127.0Y-107.95
X127.0Y-125.73
X127.317Y-88.9
X128.27Y-113.665
X129.222Y-85.09
X129.54Y-112.395
X130.493Y-88.9
X130.81Y-119.38
X131.445Y-127.635
X132.08Y-111.125
X132.08Y-121.285
X133.35Y-108.585
X133.35Y-119.38
X133.985Y-102.87
X134.38Y-106.277
X134.62Y-112.395
X134.62Y-120.65
X134.62Y-128.905
X135.89Y-88.265
X137.16Y-97.155
X137.851Y-88.265
X139.7Y-98.425
T2
X116.205Y-118.11
X116.205Y-128.27
T3
X80.486Y-85.09
X80.486Y-87.63
X80.486Y-90.17
X80.486Y-92.71
X116.099Y-101.64
X116.099Y-104.14
X116.099Y-106.64
X130.599Y-101.64
X130.599Y-106.64
T4
X81.439Y-103.981
X81.439Y-123.031
X87.789Y-101.441
X87.789Y-120.491
X100.489Y-103.981
X100.489Y-123.031
X106.839Y-101.441
X106.839Y-120.491
T4
G00X122.949Y-98.54
M15
G01X124.249Y-98.54
M16
G05
G00X122.949Y-109.74
M15
G01X124.249Y-109.74
M16
G05
M30
