%TF.GenerationSoftware,KiCad,Pcbnew,9.0.6*%
%TF.CreationDate,2026-02-14T19:53:56+05:30*%
%TF.ProjectId,Juny co2 Hackpad,4a756e79-2063-46f3-9220-4861636b7061,rev?*%
%TF.SameCoordinates,Original*%
%TF.FileFunction,Copper,L1,Top*%
%TF.FilePolarity,Positive*%
%FSLAX46Y46*%
G04 Gerber Fmt 4.6, Leading zero omitted, Abs format (unit mm)*
G04 Created by KiCad (PCBNEW 9.0.6) date 2026-02-14 19:53:56*
%MOMM*%
%LPD*%
G01*
G04 APERTURE LIST*
G04 Aperture macros list*
%AMRoundRect*
0 Rectangle with rounded corners*
0 $1 Rounding radius*
0 $2 $3 $4 $5 $6 $7 $8 $9 X,Y pos of 4 corners*
0 Add a 4 corners polygon primitive as box body*
4,1,4,$2,$3,$4,$5,$6,$7,$8,$9,$2,$3,0*
0 Add four circle primitives for the rounded corners*
1,1,$1+$1,$2,$3*
1,1,$1+$1,$4,$5*
1,1,$1+$1,$6,$7*
1,1,$1+$1,$8,$9*
0 Add four rect primitives between the rounded corners*
20,1,$1+$1,$2,$3,$4,$5,0*
20,1,$1+$1,$4,$5,$6,$7,0*
20,1,$1+$1,$6,$7,$8,$9,0*
20,1,$1+$1,$8,$9,$2,$3,0*%
G04 Aperture macros list end*
%ADD10C,0.300000*%
%TA.AperFunction,NonConductor*%
%ADD11C,0.300000*%
%TD*%
%TA.AperFunction,ComponentPad*%
%ADD12R,1.700000X1.700000*%
%TD*%
%TA.AperFunction,ComponentPad*%
%ADD13C,1.700000*%
%TD*%
%TA.AperFunction,ComponentPad*%
%ADD14C,2.200000*%
%TD*%
%TA.AperFunction,SMDPad,CuDef*%
%ADD15R,1.600000X0.850000*%
%TD*%
%TA.AperFunction,ComponentPad*%
%ADD16C,1.600000*%
%TD*%
%TA.AperFunction,ComponentPad*%
%ADD17R,2.000000X2.000000*%
%TD*%
%TA.AperFunction,ComponentPad*%
%ADD18C,2.000000*%
%TD*%
%TA.AperFunction,ComponentPad*%
%ADD19R,3.200000X2.000000*%
%TD*%
%TA.AperFunction,SMDPad,CuDef*%
%ADD20R,0.850000X1.600000*%
%TD*%
%TA.AperFunction,SMDPad,CuDef*%
%ADD21RoundRect,0.500000X0.875000X0.500000X-0.875000X0.500000X-0.875000X-0.500000X0.875000X-0.500000X0*%
%TD*%
%TA.AperFunction,SMDPad,CuDef*%
%ADD22RoundRect,0.275000X0.275000X-0.975000X0.275000X0.975000X-0.275000X0.975000X-0.275000X-0.975000X0*%
%TD*%
%TA.AperFunction,SMDPad,CuDef*%
%ADD23C,1.700000*%
%TD*%
%TA.AperFunction,ViaPad*%
%ADD24C,0.800000*%
%TD*%
%TA.AperFunction,Conductor*%
%ADD25C,0.250000*%
%TD*%
%TA.AperFunction,Conductor*%
%ADD26C,0.500000*%
%TD*%
G04 APERTURE END LIST*
D10*
D11*
X88054510Y-78800828D02*
X88054510Y-80086542D01*
X88054510Y-80086542D02*
X87983082Y-80229400D01*
X87983082Y-80229400D02*
X87840225Y-80300828D01*
X87840225Y-80300828D02*
X87768796Y-80300828D01*
X88054510Y-78300828D02*
X87983082Y-78372257D01*
X87983082Y-78372257D02*
X88054510Y-78443685D01*
X88054510Y-78443685D02*
X88125939Y-78372257D01*
X88125939Y-78372257D02*
X88054510Y-78300828D01*
X88054510Y-78300828D02*
X88054510Y-78443685D01*
X89411654Y-78800828D02*
X89411654Y-79800828D01*
X88768796Y-78800828D02*
X88768796Y-79586542D01*
X88768796Y-79586542D02*
X88840225Y-79729400D01*
X88840225Y-79729400D02*
X88983082Y-79800828D01*
X88983082Y-79800828D02*
X89197368Y-79800828D01*
X89197368Y-79800828D02*
X89340225Y-79729400D01*
X89340225Y-79729400D02*
X89411654Y-79657971D01*
X90125939Y-78800828D02*
X90125939Y-79800828D01*
X90125939Y-78943685D02*
X90197368Y-78872257D01*
X90197368Y-78872257D02*
X90340225Y-78800828D01*
X90340225Y-78800828D02*
X90554511Y-78800828D01*
X90554511Y-78800828D02*
X90697368Y-78872257D01*
X90697368Y-78872257D02*
X90768797Y-79015114D01*
X90768797Y-79015114D02*
X90768797Y-79800828D01*
X91340225Y-78800828D02*
X91697368Y-79800828D01*
X92054511Y-78800828D02*
X91697368Y-79800828D01*
X91697368Y-79800828D02*
X91554511Y-80157971D01*
X91554511Y-80157971D02*
X91483082Y-80229400D01*
X91483082Y-80229400D02*
X91340225Y-80300828D01*
X93268797Y-78300828D02*
X92983082Y-78300828D01*
X92983082Y-78300828D02*
X92840225Y-78372257D01*
X92840225Y-78372257D02*
X92768797Y-78443685D01*
X92768797Y-78443685D02*
X92625939Y-78657971D01*
X92625939Y-78657971D02*
X92554511Y-78943685D01*
X92554511Y-78943685D02*
X92554511Y-79515114D01*
X92554511Y-79515114D02*
X92625939Y-79657971D01*
X92625939Y-79657971D02*
X92697368Y-79729400D01*
X92697368Y-79729400D02*
X92840225Y-79800828D01*
X92840225Y-79800828D02*
X93125939Y-79800828D01*
X93125939Y-79800828D02*
X93268797Y-79729400D01*
X93268797Y-79729400D02*
X93340225Y-79657971D01*
X93340225Y-79657971D02*
X93411654Y-79515114D01*
X93411654Y-79515114D02*
X93411654Y-79157971D01*
X93411654Y-79157971D02*
X93340225Y-79015114D01*
X93340225Y-79015114D02*
X93268797Y-78943685D01*
X93268797Y-78943685D02*
X93125939Y-78872257D01*
X93125939Y-78872257D02*
X92840225Y-78872257D01*
X92840225Y-78872257D02*
X92697368Y-78943685D01*
X92697368Y-78943685D02*
X92625939Y-79015114D01*
X92625939Y-79015114D02*
X92554511Y-79157971D01*
X93983082Y-78443685D02*
X94054510Y-78372257D01*
X94054510Y-78372257D02*
X94197368Y-78300828D01*
X94197368Y-78300828D02*
X94554510Y-78300828D01*
X94554510Y-78300828D02*
X94697368Y-78372257D01*
X94697368Y-78372257D02*
X94768796Y-78443685D01*
X94768796Y-78443685D02*
X94840225Y-78586542D01*
X94840225Y-78586542D02*
X94840225Y-78729400D01*
X94840225Y-78729400D02*
X94768796Y-78943685D01*
X94768796Y-78943685D02*
X93911653Y-79800828D01*
X93911653Y-79800828D02*
X94840225Y-79800828D01*
X95768796Y-78300828D02*
X95911653Y-78300828D01*
X95911653Y-78300828D02*
X96054510Y-78372257D01*
X96054510Y-78372257D02*
X96125939Y-78443685D01*
X96125939Y-78443685D02*
X96197367Y-78586542D01*
X96197367Y-78586542D02*
X96268796Y-78872257D01*
X96268796Y-78872257D02*
X96268796Y-79229400D01*
X96268796Y-79229400D02*
X96197367Y-79515114D01*
X96197367Y-79515114D02*
X96125939Y-79657971D01*
X96125939Y-79657971D02*
X96054510Y-79729400D01*
X96054510Y-79729400D02*
X95911653Y-79800828D01*
X95911653Y-79800828D02*
X95768796Y-79800828D01*
X95768796Y-79800828D02*
X95625939Y-79729400D01*
X95625939Y-79729400D02*
X95554510Y-79657971D01*
X95554510Y-79657971D02*
X95483081Y-79515114D01*
X95483081Y-79515114D02*
X95411653Y-79229400D01*
X95411653Y-79229400D02*
X95411653Y-78872257D01*
X95411653Y-78872257D02*
X95483081Y-78586542D01*
X95483081Y-78586542D02*
X95554510Y-78443685D01*
X95554510Y-78443685D02*
X95625939Y-78372257D01*
X95625939Y-78372257D02*
X95768796Y-78300828D01*
X97697367Y-79800828D02*
X96840224Y-79800828D01*
X97268795Y-79800828D02*
X97268795Y-78300828D01*
X97268795Y-78300828D02*
X97125938Y-78515114D01*
X97125938Y-78515114D02*
X96983081Y-78657971D01*
X96983081Y-78657971D02*
X96840224Y-78729400D01*
X98197366Y-78300828D02*
X99197366Y-78300828D01*
X99197366Y-78300828D02*
X98554509Y-79800828D01*
D12*
%TO.P,J1,1,Pin_1*%
%TO.N,GND*%
X80486250Y-92710000D03*
D13*
%TO.P,J1,2,Pin_2*%
%TO.N,+3.3V*%
X80486250Y-90170000D03*
%TO.P,J1,3,Pin_3*%
%TO.N,Net-(J1-Pin_3)*%
X80486250Y-87630000D03*
%TO.P,J1,4,Pin_4*%
%TO.N,Net-(J1-Pin_4)*%
X80486250Y-85090000D03*
%TD*%
D14*
%TO.P,SW1,1,1*%
%TO.N,GND*%
X87788750Y-101441250D03*
%TO.P,SW1,2,2*%
%TO.N,Net-(U1-GPIO1_D7_CSn_RX)*%
X81438750Y-103981250D03*
%TD*%
%TO.P,SW4,1,1*%
%TO.N,GND*%
X106838750Y-101441250D03*
%TO.P,SW4,2,2*%
%TO.N,Net-(U1-GPIO2_D8_SCK)*%
X100488750Y-103981250D03*
%TD*%
D15*
%TO.P,D3,1,DOUT*%
%TO.N,Net-(D3-DOUT)*%
X131120000Y-84215000D03*
%TO.P,D3,2,VSS*%
%TO.N,GND*%
X131120000Y-85965000D03*
%TO.P,D3,3,DIN*%
%TO.N,Net-(D2-DOUT)*%
X134620000Y-85965000D03*
%TO.P,D3,4,VDD*%
%TO.N,+5V*%
X134620000Y-84215000D03*
%TD*%
%TO.P,D9,1,DOUT*%
%TO.N,Net-(D5-DIN)*%
X123345000Y-91358750D03*
%TO.P,D9,2,VSS*%
%TO.N,GND*%
X123345000Y-93108750D03*
%TO.P,D9,3,DIN*%
%TO.N,Net-(D8-DOUT)*%
X126845000Y-93108750D03*
%TO.P,D9,4,VDD*%
%TO.N,+5V*%
X126845000Y-91358750D03*
%TD*%
D14*
%TO.P,SW6,1,1*%
%TO.N,GND*%
X87788750Y-120491250D03*
%TO.P,SW6,2,2*%
%TO.N,Net-(U1-GPIO4_D9_MISO)*%
X81438750Y-123031250D03*
%TD*%
D16*
%TO.P,R1,1*%
%TO.N,Net-(U1-GPIO26_A0_D0)*%
X116205000Y-128270000D03*
%TO.P,R1,2*%
%TO.N,Net-(D4-DIN)*%
X116205000Y-118110000D03*
%TD*%
D17*
%TO.P,SW10,A,A*%
%TO.N,Net-(U1-GPIO28_A2_D2)*%
X116098750Y-101640000D03*
D18*
%TO.P,SW10,B,B*%
%TO.N,Net-(U1-GPIO27_A1_D1)*%
X116098750Y-106640000D03*
%TO.P,SW10,C,C*%
%TO.N,GND*%
X116098750Y-104140000D03*
D19*
%TO.P,SW10,MP*%
%TO.N,N/C*%
X123598750Y-98540000D03*
X123598750Y-109740000D03*
D18*
%TO.P,SW10,S1,S1*%
%TO.N,Net-(U1-GPIO29_A3_D3)*%
X130598750Y-106640000D03*
%TO.P,SW10,S2,S2*%
%TO.N,GND*%
X130598750Y-101640000D03*
%TD*%
D20*
%TO.P,D4,1,DOUT*%
%TO.N,Net-(D2-DIN)*%
X134380000Y-109777500D03*
%TO.P,D4,2,VSS*%
%TO.N,GND*%
X136130000Y-109777500D03*
%TO.P,D4,3,DIN*%
%TO.N,Net-(D4-DIN)*%
X136130000Y-106277500D03*
%TO.P,D4,4,VDD*%
%TO.N,+5V*%
X134380000Y-106277500D03*
%TD*%
D21*
%TO.P,U1,1,GPIO26_A0_D0*%
%TO.N,Net-(U1-GPIO26_A0_D0)*%
X137722000Y-132592000D03*
%TO.P,U1,2,GPIO27_A1_D1*%
%TO.N,Net-(U1-GPIO27_A1_D1)*%
X137722000Y-130052000D03*
%TO.P,U1,3,GPIO28_A2_D2*%
%TO.N,Net-(U1-GPIO28_A2_D2)*%
X137722000Y-127512000D03*
%TO.P,U1,4,GPIO29_A3_D3*%
%TO.N,Net-(U1-GPIO29_A3_D3)*%
X137722000Y-124972000D03*
%TO.P,U1,5,GPIO6_D4_SDA*%
%TO.N,Net-(J1-Pin_4)*%
X137722000Y-122432000D03*
%TO.P,U1,6,GPIO7_D5_SCL*%
%TO.N,Net-(J1-Pin_3)*%
X137722000Y-119892000D03*
%TO.P,U1,7,GPIO0_D6_TX*%
%TO.N,unconnected-(U1-GPIO0_D6_TX-Pad7)*%
X137722000Y-117352000D03*
%TO.P,U1,8,GPIO1_D7_CSn_RX*%
%TO.N,Net-(U1-GPIO1_D7_CSn_RX)*%
X121557000Y-117352000D03*
%TO.P,U1,9,GPIO2_D8_SCK*%
%TO.N,Net-(U1-GPIO2_D8_SCK)*%
X121557000Y-119892000D03*
%TO.P,U1,10,GPIO4_D9_MISO*%
%TO.N,Net-(U1-GPIO4_D9_MISO)*%
X121557000Y-122432000D03*
%TO.P,U1,11,GPIO3_D10_MOSI*%
%TO.N,Net-(U1-GPIO3_D10_MOSI)*%
X121557000Y-124972000D03*
%TO.P,U1,12,3V3*%
%TO.N,+3.3V*%
X121557000Y-127512000D03*
%TO.P,U1,13,GND*%
%TO.N,unconnected-(U1-GND-Pad13)*%
X121557000Y-130052000D03*
%TO.P,U1,14,5V*%
%TO.N,+5V*%
X121557000Y-132592000D03*
D22*
%TO.P,U1,15,BAT*%
%TO.N,unconnected-(U1-BAT-Pad15)*%
X130810000Y-116332000D03*
%TO.P,U1,16,GND*%
%TO.N,GND*%
X128270000Y-116332000D03*
D23*
%TO.P,U1,17,SWDIO*%
%TO.N,unconnected-(U1-SWDIO-Pad17)*%
X130810000Y-133350000D03*
%TO.P,U1,18,SWDCLK*%
%TO.N,unconnected-(U1-SWDCLK-Pad18)*%
X128270000Y-133350000D03*
%TO.P,U1,19,RST*%
%TO.N,unconnected-(U1-RST-Pad19)*%
X130810000Y-130810000D03*
%TO.P,U1,20,GND*%
%TO.N,unconnected-(U1-GND-Pad20)*%
X128270000Y-130810000D03*
%TD*%
D15*
%TO.P,D8,1,DOUT*%
%TO.N,Net-(D8-DOUT)*%
X123345000Y-84215000D03*
%TO.P,D8,2,VSS*%
%TO.N,GND*%
X123345000Y-85965000D03*
%TO.P,D8,3,DIN*%
%TO.N,Net-(D3-DOUT)*%
X126845000Y-85965000D03*
%TO.P,D8,4,VDD*%
%TO.N,+5V*%
X126845000Y-84215000D03*
%TD*%
%TO.P,D5,1,DOUT*%
%TO.N,unconnected-(D5-DOUT-Pad1)*%
X131120000Y-91358750D03*
%TO.P,D5,2,VSS*%
%TO.N,GND*%
X131120000Y-93108750D03*
%TO.P,D5,3,DIN*%
%TO.N,Net-(D5-DIN)*%
X134620000Y-93108750D03*
%TO.P,D5,4,VDD*%
%TO.N,+5V*%
X134620000Y-91358750D03*
%TD*%
D14*
%TO.P,SW5,1,1*%
%TO.N,GND*%
X106838750Y-120491250D03*
%TO.P,SW5,2,2*%
%TO.N,Net-(U1-GPIO3_D10_MOSI)*%
X100488750Y-123031250D03*
%TD*%
D20*
%TO.P,D2,1,DOUT*%
%TO.N,Net-(D2-DOUT)*%
X134380000Y-101127500D03*
%TO.P,D2,2,VSS*%
%TO.N,GND*%
X136130000Y-101127500D03*
%TO.P,D2,3,DIN*%
%TO.N,Net-(D2-DIN)*%
X136130000Y-97627500D03*
%TO.P,D2,4,VDD*%
%TO.N,+5V*%
X134380000Y-97627500D03*
%TD*%
D24*
%TO.N,GND*%
X133985000Y-102870000D03*
%TO.N,Net-(D2-DOUT)*%
X137851250Y-88265000D03*
X135890000Y-88265000D03*
%TO.N,Net-(D2-DIN)*%
X134620000Y-112395000D03*
X132080000Y-111125000D03*
X137160000Y-97155000D03*
X139700000Y-98425000D03*
%TO.N,+5V*%
X125730000Y-128905000D03*
X134380000Y-106277500D03*
X127000000Y-125730000D03*
%TO.N,Net-(D3-DOUT)*%
X126845000Y-85965000D03*
X129222500Y-85090000D03*
%TO.N,Net-(D5-DIN)*%
X127317500Y-88900000D03*
X130492500Y-88900000D03*
%TO.N,Net-(D8-DOUT)*%
X125412500Y-90805000D03*
X124777500Y-88265000D03*
%TO.N,Net-(J1-Pin_4)*%
X129540000Y-112395000D03*
X130810000Y-119380000D03*
X128270000Y-113665000D03*
X134620000Y-120650000D03*
X133350000Y-119380000D03*
%TO.N,Net-(U1-GPIO26_A0_D0)*%
X125095000Y-127000000D03*
X118745000Y-127000000D03*
%TO.N,Net-(U1-GPIO1_D7_CSn_RX)*%
X90170000Y-111760000D03*
X118745000Y-116840000D03*
X85725000Y-111760000D03*
%TO.N,Net-(U1-GPIO2_D8_SCK)*%
X103505000Y-113030000D03*
X118110000Y-119380000D03*
X103505000Y-110490000D03*
%TO.N,Net-(U1-GPIO3_D10_MOSI)*%
X101600000Y-130810000D03*
X116205000Y-125730000D03*
X101600000Y-127635000D03*
%TO.N,Net-(U1-GPIO4_D9_MISO)*%
X118110000Y-121920000D03*
%TO.N,Net-(U1-GPIO28_A2_D2)*%
X131445000Y-127635000D03*
X125730000Y-114935000D03*
X125730000Y-124460000D03*
%TO.N,Net-(U1-GPIO29_A3_D3)*%
X132080000Y-121285000D03*
%TO.N,Net-(U1-GPIO27_A1_D1)*%
X134620000Y-128905000D03*
X125095000Y-118745000D03*
X125095000Y-116205000D03*
%TO.N,Net-(D4-DIN)*%
X127000000Y-107950000D03*
X133350000Y-108585000D03*
%TD*%
D25*
%TO.N,GND*%
X132877500Y-113030000D02*
X130175000Y-113030000D01*
X123345000Y-94770000D02*
X123825000Y-95250000D01*
X136130000Y-109777500D02*
X136602500Y-109777500D01*
X121358750Y-95250000D02*
X123825000Y-95250000D01*
X129222500Y-87862500D02*
X129222500Y-93345000D01*
X129222500Y-87862500D02*
X131120000Y-85965000D01*
X138430000Y-107950000D02*
X138430000Y-105410000D01*
X122632500Y-85965000D02*
X121602500Y-86995000D01*
X129222500Y-93655000D02*
X126992500Y-95885000D01*
X119217500Y-101021250D02*
X116098750Y-104140000D01*
X129222500Y-93345000D02*
X129222500Y-93655000D01*
X126357500Y-95250000D02*
X126992500Y-95885000D01*
X126992500Y-95885000D02*
X126992500Y-98033750D01*
X121602500Y-91366250D02*
X123345000Y-93108750D01*
X119217500Y-101021250D02*
X119217500Y-97391250D01*
X133985000Y-102870000D02*
X134387500Y-102870000D01*
X130883750Y-93345000D02*
X129222500Y-93345000D01*
X128184250Y-115020750D02*
X128184250Y-117389250D01*
X131120000Y-93108750D02*
X130883750Y-93345000D01*
X135890000Y-102870000D02*
X133985000Y-102870000D01*
X123345000Y-85965000D02*
X122632500Y-85965000D01*
X130175000Y-113030000D02*
X128184250Y-115020750D01*
X136130000Y-109777500D02*
X132877500Y-113030000D01*
X126992500Y-98033750D02*
X130598750Y-101640000D01*
X123825000Y-95250000D02*
X126357500Y-95250000D01*
X121602500Y-86995000D02*
X121602500Y-91366250D01*
X136602500Y-109777500D02*
X138430000Y-107950000D01*
X119217500Y-97391250D02*
X121358750Y-95250000D01*
X123345000Y-93108750D02*
X123345000Y-94770000D01*
X134387500Y-102870000D02*
X136130000Y-101127500D01*
X138430000Y-105410000D02*
X135890000Y-102870000D01*
%TO.N,Net-(D2-DOUT)*%
X138430000Y-88843750D02*
X137851250Y-88265000D01*
X138430000Y-98425000D02*
X137160000Y-99695000D01*
X135812500Y-99695000D02*
X134380000Y-101127500D01*
X135890000Y-88265000D02*
X135890000Y-87630000D01*
X135572500Y-87312500D02*
X135572500Y-86917500D01*
X135890000Y-87630000D02*
X135572500Y-87312500D01*
X138430000Y-98425000D02*
X138430000Y-88843750D01*
X137160000Y-99695000D02*
X135812500Y-99695000D01*
X135572500Y-86917500D02*
X134620000Y-85965000D01*
%TO.N,Net-(D2-DIN)*%
X135890000Y-112395000D02*
X134620000Y-112395000D01*
X139700000Y-108585000D02*
X135890000Y-112395000D01*
X139700000Y-98425000D02*
X139700000Y-108585000D01*
X136687500Y-97627500D02*
X137160000Y-97155000D01*
X132080000Y-111125000D02*
X133427500Y-109777500D01*
X136130000Y-97627500D02*
X136687500Y-97627500D01*
X133427500Y-109777500D02*
X134380000Y-109777500D01*
D26*
%TO.N,+5V*%
X127000000Y-125730000D02*
X127000000Y-113657500D01*
X134620000Y-91358750D02*
X135336250Y-92075000D01*
X137160000Y-95250000D02*
X136525000Y-95885000D01*
X136126250Y-84215000D02*
X137001250Y-85090000D01*
X126845000Y-84215000D02*
X127720000Y-85090000D01*
X127720000Y-85090000D02*
X127952500Y-85090000D01*
X137160000Y-92710000D02*
X137160000Y-95250000D01*
X128587500Y-89616250D02*
X126845000Y-91358750D01*
X127952500Y-85090000D02*
X128587500Y-85725000D01*
X132715000Y-99292500D02*
X134380000Y-97627500D01*
X137001250Y-88977500D02*
X134620000Y-91358750D01*
X133745000Y-84215000D02*
X132080000Y-82550000D01*
X121557000Y-132592000D02*
X122043000Y-132592000D01*
X134620000Y-84215000D02*
X133745000Y-84215000D01*
X128510000Y-82550000D02*
X126845000Y-84215000D01*
X127000000Y-113657500D02*
X134380000Y-106277500D01*
X135336250Y-92075000D02*
X136525000Y-92075000D01*
X134380000Y-106277500D02*
X134380000Y-105805000D01*
X132715000Y-104140000D02*
X132715000Y-99292500D01*
X134380000Y-97395000D02*
X134380000Y-97627500D01*
X136525000Y-92075000D02*
X137160000Y-92710000D01*
X134380000Y-105805000D02*
X132715000Y-104140000D01*
X136525000Y-95885000D02*
X135890000Y-95885000D01*
X128587500Y-85725000D02*
X128587500Y-89616250D01*
X132080000Y-82550000D02*
X128510000Y-82550000D01*
X134620000Y-84215000D02*
X136126250Y-84215000D01*
X135890000Y-95885000D02*
X134380000Y-97395000D01*
X122043000Y-132592000D02*
X125730000Y-128905000D01*
X137001250Y-85090000D02*
X137001250Y-88977500D01*
D25*
%TO.N,Net-(D3-DOUT)*%
X130245000Y-85090000D02*
X129222500Y-85090000D01*
X131120000Y-84215000D02*
X130245000Y-85090000D01*
%TO.N,Net-(D5-DIN)*%
X130492500Y-88900000D02*
X133032500Y-91440000D01*
X123345000Y-91358750D02*
X125803750Y-88900000D01*
X134383750Y-93345000D02*
X134620000Y-93108750D01*
X133032500Y-93345000D02*
X134383750Y-93345000D01*
X125803750Y-88900000D02*
X127317500Y-88900000D01*
X133032500Y-91440000D02*
X133032500Y-93345000D01*
%TO.N,Net-(D8-DOUT)*%
X125412500Y-90805000D02*
X125412500Y-91676250D01*
X124777500Y-85090000D02*
X124777500Y-88265000D01*
X125412500Y-91676250D02*
X126845000Y-93108750D01*
X123902500Y-84215000D02*
X124777500Y-85090000D01*
X123345000Y-84215000D02*
X123902500Y-84215000D01*
D26*
%TO.N,+3.3V*%
X95885000Y-114935000D02*
X95250000Y-114300000D01*
X95250000Y-114300000D02*
X95250000Y-100330000D01*
X112395000Y-114935000D02*
X95885000Y-114935000D01*
X113030000Y-115570000D02*
X112395000Y-114935000D01*
X92075000Y-97155000D02*
X87471250Y-97155000D01*
X118110000Y-129540000D02*
X114935000Y-129540000D01*
X121471250Y-126805500D02*
X120844500Y-126805500D01*
X95250000Y-100330000D02*
X92075000Y-97155000D01*
X87471250Y-97155000D02*
X80486250Y-90170000D01*
X114935000Y-129540000D02*
X113030000Y-127635000D01*
X120844500Y-126805500D02*
X118110000Y-129540000D01*
X113030000Y-127635000D02*
X113030000Y-115570000D01*
D25*
%TO.N,Net-(J1-Pin_3)*%
X126699280Y-126456000D02*
X124011810Y-123768530D01*
X116205000Y-108408998D02*
X113000324Y-108408998D01*
X124011810Y-123768530D02*
X124011810Y-114751000D01*
X128484438Y-118654000D02*
X128484438Y-125272282D01*
X137722000Y-119892000D02*
X136484000Y-118654000D01*
X113000324Y-108408998D02*
X108096326Y-103505000D01*
X136484000Y-118654000D02*
X128484438Y-118654000D01*
X102029169Y-103505000D02*
X86154169Y-87630000D01*
X117389998Y-107224000D02*
X116205000Y-108408998D01*
X86154169Y-87630000D02*
X80486250Y-87630000D01*
X127300720Y-107224000D02*
X117389998Y-107224000D01*
X124011810Y-114751000D02*
X127726000Y-111036810D01*
X127300720Y-126456000D02*
X126699280Y-126456000D01*
X127726000Y-111036810D02*
X127726000Y-107649280D01*
X108096326Y-103505000D02*
X102029169Y-103505000D01*
X128484438Y-125272282D02*
X127300720Y-126456000D01*
X127726000Y-107649280D02*
X127300720Y-107224000D01*
%TO.N,Net-(J1-Pin_4)*%
X134620000Y-120650000D02*
X135695500Y-121725500D01*
X135695500Y-121725500D02*
X137636250Y-121725500D01*
X129540000Y-112395000D02*
X128270000Y-113665000D01*
X130810000Y-119380000D02*
X133350000Y-119380000D01*
%TO.N,Net-(U1-GPIO26_A0_D0)*%
X125095000Y-127000000D02*
X129783280Y-127000000D01*
X135375280Y-132592000D02*
X137722000Y-132592000D01*
X116781000Y-128846000D02*
X116899000Y-128846000D01*
X116899000Y-128846000D02*
X118745000Y-127000000D01*
X129783280Y-127000000D02*
X135375280Y-132592000D01*
X116205000Y-128270000D02*
X116781000Y-128846000D01*
%TO.N,Net-(U1-GPIO1_D7_CSn_RX)*%
X118745000Y-116840000D02*
X121276750Y-116840000D01*
X85725000Y-111760000D02*
X90170000Y-111760000D01*
%TO.N,Net-(U1-GPIO2_D8_SCK)*%
X118110000Y-119380000D02*
X121276750Y-119380000D01*
X103505000Y-110490000D02*
X103505000Y-113030000D01*
%TO.N,Net-(U1-GPIO3_D10_MOSI)*%
X117669500Y-124265500D02*
X121471250Y-124265500D01*
X116205000Y-125730000D02*
X117669500Y-124265500D01*
X101600000Y-127635000D02*
X101600000Y-130810000D01*
%TO.N,Net-(U1-GPIO4_D9_MISO)*%
X118110000Y-121920000D02*
X121276750Y-121920000D01*
%TO.N,Net-(U1-GPIO28_A2_D2)*%
X126365000Y-115570000D02*
X126365000Y-121920000D01*
X132274500Y-126805500D02*
X137636250Y-126805500D01*
X125730000Y-114935000D02*
X126365000Y-115570000D01*
X126365000Y-121920000D02*
X125730000Y-122555000D01*
X125730000Y-122555000D02*
X125730000Y-124460000D01*
X131445000Y-127635000D02*
X132274500Y-126805500D01*
%TO.N,Net-(U1-GPIO29_A3_D3)*%
X132080000Y-121285000D02*
X135060500Y-124265500D01*
X135060500Y-124265500D02*
X137636250Y-124265500D01*
%TO.N,Net-(U1-GPIO27_A1_D1)*%
X125095000Y-116205000D02*
X125095000Y-118745000D01*
X137195750Y-128905000D02*
X137636250Y-129345500D01*
X134620000Y-128905000D02*
X137195750Y-128905000D01*
%TO.N,Net-(D4-DIN)*%
X127000000Y-111125000D02*
X123825000Y-114300000D01*
X121285000Y-114300000D02*
X120015000Y-115570000D01*
X136130000Y-106277500D02*
X136130000Y-106440000D01*
X117475000Y-115570000D02*
X116205000Y-116840000D01*
X127000000Y-107950000D02*
X127000000Y-111125000D01*
X133985000Y-108585000D02*
X133350000Y-108585000D01*
X120015000Y-115570000D02*
X117475000Y-115570000D01*
X116205000Y-116840000D02*
X116205000Y-118110000D01*
X123825000Y-114300000D02*
X121285000Y-114300000D01*
X136130000Y-106440000D02*
X133985000Y-108585000D01*
%TD*%
M02*
