%TF.GenerationSoftware,KiCad,Pcbnew,9.0.6*%
%TF.CreationDate,2026-02-14T19:53:56+05:30*%
%TF.ProjectId,Juny co2 Hackpad,4a756e79-2063-46f3-9220-4861636b7061,rev?*%
%TF.SameCoordinates,Original*%
%TF.FileFunction,Soldermask,Top*%
%TF.FilePolarity,Negative*%
%FSLAX46Y46*%
G04 Gerber Fmt 4.6, Leading zero omitted, Abs format (unit mm)*
G04 Created by KiCad (PCBNEW 9.0.6) date 2026-02-14 19:53:56*
%MOMM*%
%LPD*%
G01*
G04 APERTURE LIST*
G04 Aperture macros list*
%AMRoundRect*
0 Rectangle with rounded corners*
0 $1 Rounding radius*
0 $2 $3 $4 $5 $6 $7 $8 $9 X,Y pos of 4 corners*
0 Add a 4 corners polygon primitive as box body*
4,1,4,$2,$3,$4,$5,$6,$7,$8,$9,$2,$3,0*
0 Add four circle primitives for the rounded corners*
1,1,$1+$1,$2,$3*
1,1,$1+$1,$4,$5*
1,1,$1+$1,$6,$7*
1,1,$1+$1,$8,$9*
0 Add four rect primitives between the rounded corners*
20,1,$1+$1,$2,$3,$4,$5,0*
20,1,$1+$1,$4,$5,$6,$7,0*
20,1,$1+$1,$6,$7,$8,$9,0*
20,1,$1+$1,$8,$9,$2,$3,0*%
G04 Aperture macros list end*
%ADD10R,1.700000X1.700000*%
%ADD11C,1.700000*%
%ADD12C,4.000000*%
%ADD13C,2.200000*%
%ADD14R,1.600000X0.850000*%
%ADD15C,1.600000*%
%ADD16R,2.000000X2.000000*%
%ADD17C,2.000000*%
%ADD18R,3.200000X2.000000*%
%ADD19R,0.850000X1.600000*%
%ADD20RoundRect,0.525400X0.900400X0.525400X-0.900400X0.525400X-0.900400X-0.525400X0.900400X-0.525400X0*%
%ADD21RoundRect,0.275000X0.275000X-0.975000X0.275000X0.975000X-0.275000X0.975000X-0.275000X-0.975000X0*%
G04 APERTURE END LIST*
D10*
%TO.C,J1*%
X80486250Y-92710000D03*
D11*
X80486250Y-90170000D03*
X80486250Y-87630000D03*
X80486250Y-85090000D03*
%TD*%
%TO.C,SW1*%
X80168750Y-106521250D03*
D12*
X85248750Y-106521250D03*
D11*
X90328750Y-106521250D03*
D13*
X87788750Y-101441250D03*
X81438750Y-103981250D03*
%TD*%
D11*
%TO.C,SW4*%
X99218750Y-106521250D03*
D12*
X104298750Y-106521250D03*
D11*
X109378750Y-106521250D03*
D13*
X106838750Y-101441250D03*
X100488750Y-103981250D03*
%TD*%
D14*
%TO.C,D3*%
X131120000Y-84215000D03*
X131120000Y-85965000D03*
X134620000Y-85965000D03*
X134620000Y-84215000D03*
%TD*%
%TO.C,D9*%
X123345000Y-91358750D03*
X123345000Y-93108750D03*
X126845000Y-93108750D03*
X126845000Y-91358750D03*
%TD*%
D11*
%TO.C,SW6*%
X80168750Y-125571250D03*
D12*
X85248750Y-125571250D03*
D11*
X90328750Y-125571250D03*
D13*
X87788750Y-120491250D03*
X81438750Y-123031250D03*
%TD*%
D15*
%TO.C,R1*%
X116205000Y-128270000D03*
X116205000Y-118110000D03*
%TD*%
D16*
%TO.C,SW10*%
X116098750Y-101640000D03*
D17*
X116098750Y-106640000D03*
X116098750Y-104140000D03*
D18*
X123598750Y-98540000D03*
X123598750Y-109740000D03*
D17*
X130598750Y-106640000D03*
X130598750Y-101640000D03*
%TD*%
D19*
%TO.C,D4*%
X134380000Y-109777500D03*
X136130000Y-109777500D03*
X136130000Y-106277500D03*
X134380000Y-106277500D03*
%TD*%
D20*
%TO.C,U1*%
X137722000Y-132592000D03*
X137722000Y-130052000D03*
X137722000Y-127512000D03*
X137722000Y-124972000D03*
X137722000Y-122432000D03*
X137722000Y-119892000D03*
X137722000Y-117352000D03*
X121557000Y-117352000D03*
X121557000Y-119892000D03*
X121557000Y-122432000D03*
X121557000Y-124972000D03*
X121557000Y-127512000D03*
X121557000Y-130052000D03*
X121557000Y-132592000D03*
D21*
X130810000Y-116332000D03*
X128270000Y-116332000D03*
D11*
X130810000Y-133350000D03*
X128270000Y-133350000D03*
X130810000Y-130810000D03*
X128270000Y-130810000D03*
%TD*%
D14*
%TO.C,D8*%
X123345000Y-84215000D03*
X123345000Y-85965000D03*
X126845000Y-85965000D03*
X126845000Y-84215000D03*
%TD*%
%TO.C,D5*%
X131120000Y-91358750D03*
X131120000Y-93108750D03*
X134620000Y-93108750D03*
X134620000Y-91358750D03*
%TD*%
D11*
%TO.C,SW5*%
X99218750Y-125571250D03*
D12*
X104298750Y-125571250D03*
D11*
X109378750Y-125571250D03*
D13*
X106838750Y-120491250D03*
X100488750Y-123031250D03*
%TD*%
D19*
%TO.C,D2*%
X134380000Y-101127500D03*
X136130000Y-101127500D03*
X136130000Y-97627500D03*
X134380000Y-97627500D03*
%TD*%
M02*
